<?xml version="1.0" standalone="no"?>
<!DOCTYPE svg PUBLIC "-//W3C//DTD SVG 20010904//EN"
 "http://www.w3.org/TR/2001/REC-SVG-20010904/DTD/svg10.dtd">
<svg version="1.0" xmlns="http://www.w3.org/2000/svg"
 width="1618.000000pt" height="1214.000000pt" viewBox="0 0 1618.000000 1214.000000"
 preserveAspectRatio="xMidYMid meet">

<g transform="translate(0.000000,1214.000000) scale(0.100000,-0.100000)"
fill="#000000" stroke="none">
<path d="M3960 11759 c-62 -28 -80 -47 -80 -83 0 -38 55 -136 75 -136 8 0 15
-5 15 -10 0 -6 31 -30 69 -55 88 -57 125 -99 111 -126 -14 -24 -48 -32 -116
-27 -60 5 -115 41 -144 94 -18 31 -50 45 -50 21 0 -49 111 -138 188 -151 53
-8 121 13 145 47 20 25 20 29 5 60 -18 37 -39 55 -137 120 -77 50 -120 100
-128 150 -5 35 -4 36 46 62 70 35 92 28 85 -28 -6 -49 11 -82 39 -71 20 7 30
39 25 80 -2 19 -14 36 -37 51 -41 28 -54 28 -111 2z m117 -81 c-3 -8 -6 -5 -6
6 -1 11 2 17 5 13 3 -3 4 -12 1 -19z"/>
<path d="M4284 11705 c-4 -18 -2 -30 7 -36 8 -5 9 -9 4 -9 -7 0 -9 -21 -5 -57
8 -90 3 -113 -26 -113 -34 0 -31 -28 4 -32 26 -3 27 -5 35 -83 9 -96 12 -105
33 -105 12 0 15 6 11 23 -4 12 -9 52 -13 90 l-7 67 44 -1 c82 -2 101 -11 104
-44 3 -41 32 -95 50 -95 19 0 19 24 1 82 l-13 46 28 6 c18 3 29 12 29 22 0 13
-6 15 -32 9 -37 -8 -34 -8 -140 1 l-78 7 -1 71 c-1 39 -3 88 -4 108 -3 30 -1
36 12 31 11 -4 14 -1 11 13 -2 10 -13 20 -25 22 -17 3 -24 -3 -29 -23z"/>
<path d="M14836 11695 c-15 -16 -24 -30 -22 -32 6 -6 -44 -58 -57 -59 -7 0
-17 -2 -24 -2 -21 -3 -62 -84 -69 -137 -3 -28 -18 -67 -33 -90 -99 -147 -135
-235 -96 -235 9 0 15 9 15 22 0 12 26 64 57 116 48 81 58 92 64 74 13 -34 44
-36 99 -6 94 51 143 130 126 199 -7 28 -48 49 -78 42 -10 -3 -18 -3 -18 -1 0
9 34 60 59 87 18 20 22 30 14 38 -9 9 -18 4 -37 -16z m34 -184 c0 -42 -39 -92
-100 -129 -51 -30 -56 -31 -67 -15 -20 26 -16 42 27 114 35 59 44 68 73 71 46
5 67 -8 67 -41z m-156 4 c-4 -8 -11 -15 -16 -15 -6 0 -5 6 2 15 7 8 14 15 16
15 2 0 1 -7 -2 -15z"/>
<path d="M5066 11702 c-3 -6 -1 -33 4 -62 6 -29 10 -77 10 -106 0 -54 0 -54
-31 -54 -37 0 -35 -24 3 -28 22 -3 27 -10 32 -45 22 -139 29 -167 42 -167 17
0 17 5 -2 114 -8 49 -12 92 -7 96 4 5 31 10 60 12 l52 3 -5 -55 c-7 -68 7
-107 40 -116 31 -8 86 22 104 57 24 44 -2 179 -29 152 -4 -4 -3 -29 3 -55 13
-56 3 -88 -38 -114 -25 -17 -27 -17 -41 2 -11 14 -13 33 -9 69 4 28 7 59 9 70
2 19 -3 20 -75 16 l-78 -3 -1 58 c-2 121 -21 191 -43 156z"/>
<path d="M7856 11692 c-9 -10 -33 -59 -55 -108 -64 -148 -60 -142 -94 -140
-16 0 -32 -5 -34 -11 -3 -8 3 -13 15 -13 10 0 21 -3 25 -6 3 -4 -12 -42 -33
-85 -45 -89 -45 -89 -26 -89 8 0 33 38 57 85 l43 84 45 -5 c25 -3 51 -7 58 -9
14 -5 6 -183 -10 -203 -15 -19 8 -41 25 -24 13 13 26 97 27 179 1 48 3 53 22
50 31 -3 35 21 5 29 l-26 6 0 139 c0 146 -6 162 -44 121z m7 -252 c-4 -4 -26
-5 -49 -3 l-41 5 46 106 46 107 3 -104 c1 -57 -1 -107 -5 -111z"/>
<path d="M9031 11696 c-8 -9 -10 -24 -5 -38 4 -13 8 -31 8 -40 1 -10 6 -19 11
-20 13 -4 19 92 7 104 -5 5 -14 3 -21 -6z"/>
<path d="M9205 11629 c-21 -62 -36 -89 -66 -117 -21 -21 -39 -42 -39 -49 0 -7
-7 -10 -15 -7 -11 5 -15 23 -15 71 0 47 -3 64 -12 61 -8 -3 -15 -32 -18 -79
l-5 -74 -36 -3 c-23 -2 -40 2 -49 12 -14 17 -50 22 -50 7 0 -23 54 -51 98 -51
l45 0 -6 -62 c-4 -35 -10 -73 -13 -85 -5 -17 -2 -23 10 -23 17 0 32 41 22 65
-3 9 -2 13 4 10 6 -4 10 17 10 54 0 56 2 61 33 82 17 13 43 34 57 47 l25 24 5
-83 c8 -133 25 -140 97 -43 l48 66 3 -56 c2 -41 7 -56 17 -56 15 0 17 15 19
137 1 14 -5 28 -11 30 -15 5 -63 -45 -101 -104 -15 -24 -31 -43 -35 -43 -15 0
-4 197 14 267 10 37 15 71 13 75 -12 20 -24 2 -49 -73z"/>
<path d="M2362 11689 c-23 -9 -39 -35 -28 -46 3 -4 12 -1 18 5 15 15 73 16 99
2 12 -7 25 -7 36 -2 35 20 -81 58 -125 41z"/>
<path d="M6996 11683 c-4 -10 -12 -54 -17 -98 -6 -44 -19 -99 -30 -122 -35
-72 -98 -141 -131 -143 -26 -1 24 133 68 181 19 21 18 29 -5 29 -14 0 -31 -21
-59 -72 -46 -86 -56 -121 -42 -148 21 -39 86 -17 138 47 l31 38 1 -38 c0 -51
23 -93 56 -101 28 -7 54 7 54 30 0 17 -12 18 -27 3 -8 -8 -17 -5 -32 10 -28
28 -27 84 4 217 29 121 32 184 11 184 -8 0 -17 -8 -20 -17z"/>
<path d="M8065 11681 c-3 -6 -10 -61 -16 -123 -5 -62 -15 -156 -23 -208 -13
-96 -10 -140 12 -148 8 -2 12 13 12 50 0 29 5 82 10 118 5 36 14 116 20 178 6
62 11 117 13 123 3 15 -19 23 -28 10z"/>
<path d="M10660 11675 c-16 -20 -7 -29 31 -31 40 -2 170 -129 205 -200 24 -49
25 -54 10 -82 -29 -56 -134 -82 -171 -42 -19 21 -23 59 -10 98 5 15 3 22 -5
22 -7 0 -10 -7 -7 -14 4 -10 1 -13 -8 -10 -17 7 -29 -29 -20 -64 3 -15 18 -39
33 -54 20 -22 35 -28 69 -28 76 0 163 61 163 114 0 39 -45 115 -102 175 -32
32 -58 61 -58 64 0 3 21 8 48 11 96 14 112 18 112 32 0 17 -43 18 -123 4 -53
-10 -87 -7 -138 14 -9 4 -21 0 -29 -9z"/>
<path d="M3004 11658 c-5 -7 -7 -45 -5 -84 3 -81 -10 -105 -53 -97 -19 4 -26
1 -26 -11 0 -12 9 -16 35 -16 l35 0 1 -82 c2 -75 3 -95 8 -122 0 -5 7 -3 15 3
11 10 13 32 9 107 l-6 96 58 -5 c69 -6 80 -15 64 -50 -14 -31 -6 -57 18 -57 9
0 33 16 53 35 l37 36 12 -40 c14 -49 43 -68 78 -52 32 14 24 37 -10 33 -22 -3
-29 2 -37 24 -6 15 -9 33 -6 40 3 7 -1 20 -8 30 -12 16 -17 13 -66 -32 -49
-45 -52 -46 -37 -17 9 17 22 33 29 35 7 3 9 12 5 22 -4 9 -11 15 -16 12 -5 -4
-44 -1 -86 5 l-77 12 4 93 c2 68 0 94 -9 94 -6 0 -15 -6 -19 -12z"/>
<path d="M8828 11659 c-27 -15 -21 -29 13 -29 23 0 30 4 27 17 -4 21 -18 25
-40 12z"/>
<path d="M2504 11636 c-9 -10 -1 -19 34 -41 52 -33 81 -88 82 -153 0 -87 -50
-132 -146 -132 l-46 0 3 139 c2 77 1 143 -3 147 -15 15 -27 -49 -29 -160 -2
-64 -7 -116 -11 -116 -5 0 -24 7 -43 14 -24 10 -33 20 -29 30 6 16 -19 17 -36
0 -14 -14 0 -29 50 -54 62 -32 190 -39 240 -13 113 59 107 236 -10 319 -35 25
-48 29 -56 20z"/>
<path d="M14011 11631 c-77 -17 -88 -25 -71 -51 7 -11 12 -12 18 -4 5 9 102
37 102 30 0 -1 -25 -19 -55 -41 -30 -22 -55 -45 -55 -51 0 -7 24 -11 64 -10
35 1 68 -3 72 -7 12 -12 -36 -97 -67 -119 -21 -16 -30 -17 -55 -8 -16 6 -35
18 -42 27 -9 13 -15 14 -23 6 -19 -19 -3 -40 46 -59 62 -23 91 -12 133 50 57
86 54 123 -11 141 l-37 10 48 35 c49 37 61 64 27 66 -11 1 -53 -6 -94 -15z"/>
<path d="M15230 11609 c-14 -6 -43 -14 -64 -17 -47 -9 -61 -32 -19 -32 15 0
58 8 95 17 37 9 70 15 73 12 2 -3 -9 -31 -25 -62 -29 -52 -34 -56 -76 -63 -51
-7 -55 -30 -5 -27 27 1 31 -2 26 -15 -15 -36 -26 -84 -21 -89 3 -3 -2 -12 -10
-20 -16 -16 -15 -34 3 -40 6 -2 19 20 28 49 36 116 43 127 89 130 44 3 55 22
23 42 -14 8 -20 8 -27 -4 -5 -8 -12 -12 -15 -8 -3 3 8 29 25 57 18 28 29 58
26 66 -6 18 -86 20 -126 4z"/>
<path d="M9457 11588 c-8 -30 -1 -38 34 -38 33 0 37 9 11 31 -33 28 -40 29
-45 7z"/>
<path d="M13728 11600 c-38 -11 -88 -49 -88 -65 0 -28 21 -26 49 4 27 28 61
42 61 24 0 -27 -66 -116 -104 -143 -48 -33 -78 -68 -70 -82 10 -17 39 -7 71
24 33 32 33 32 33 7 0 -44 12 -69 35 -75 24 -6 65 10 65 26 0 15 -42 23 -50
10 -9 -15 -18 8 -21 60 -2 25 7 49 30 85 34 54 45 83 39 111 -4 21 -15 25 -50
14z"/>
<path d="M13169 11580 c-43 -23 -63 -45 -54 -60 5 -8 12 -7 23 3 23 20 83 50
89 44 13 -14 -58 -128 -114 -184 -61 -59 -75 -83 -52 -83 6 0 30 16 53 35 57
46 74 45 78 -2 3 -35 6 -38 33 -38 21 0 31 5 33 18 3 15 0 18 -17 12 -18 -5
-21 -2 -21 24 0 16 -8 37 -17 46 -14 15 -15 20 -3 39 32 52 60 116 60 140 0
22 -4 26 -27 26 -16 -1 -44 -9 -64 -20z"/>
<path d="M14454 11581 c-30 -19 -64 -57 -64 -73 0 -16 30 -7 40 12 13 24 67
53 86 46 18 -7 9 -29 -40 -98 -30 -41 -51 -59 -78 -67 -42 -13 -102 -65 -96
-83 9 -25 46 -19 92 17 46 35 47 35 33 8 -25 -49 -28 -80 -11 -97 20 -20 22
-20 62 4 53 33 40 50 -20 25 -13 -5 -18 -2 -18 11 0 11 4 26 10 34 6 9 5 17
-3 22 -8 5 -6 8 6 8 12 0 17 8 17 26 0 28 25 79 51 104 25 23 41 78 28 101
-13 25 -55 25 -95 0z"/>
<path d="M13003 11533 c-45 -101 -53 -183 -17 -183 12 0 15 7 11 27 -5 29 18
117 39 148 8 11 14 27 14 37 0 34 -25 18 -47 -29z"/>
<path d="M14952 11454 c-17 -63 -28 -122 -25 -130 9 -25 33 -16 33 13 0 43 41
187 57 200 18 14 9 33 -16 33 -15 0 -24 -22 -49 -116z"/>
<path d="M5869 11519 c-16 -17 -29 -36 -29 -41 0 -5 16 -28 35 -51 40 -46 43
-62 16 -77 -31 -16 -59 -12 -71 10 -15 27 -30 25 -30 -5 0 -46 77 -61 124 -24
36 28 33 61 -9 108 l-35 39 29 28 c28 26 32 44 9 44 -5 0 -23 -14 -39 -31z"/>
<path d="M5446 11518 c-21 -18 -28 -35 -33 -79 -8 -82 4 -151 25 -147 11 3 15
11 13 23 -3 11 -5 50 -5 86 -1 77 16 106 68 111 43 4 39 22 -5 26 -27 2 -44
-3 -63 -20z"/>
<path d="M5626 11480 c-116 -103 -79 -234 49 -173 26 12 34 21 30 34 -4 10 1
21 11 27 9 5 14 14 10 20 -12 19 -56 -8 -56 -34 0 -17 -7 -24 -31 -29 -39 -9
-64 11 -35 29 33 19 86 68 97 88 8 14 6 26 -6 44 -20 31 -27 30 -69 -6z m44
-24 c0 -15 -61 -68 -69 -61 -6 6 48 75 60 75 5 0 9 -6 9 -14z"/>
<path d="M6495 11503 c-49 -12 -105 -75 -105 -117 0 -21 28 -46 52 -46 11 0
36 16 54 35 l33 35 3 -32 c4 -49 29 -41 58 17 14 28 25 51 25 52 0 1 13 5 28
8 l28 7 -3 -61 c-2 -59 10 -90 30 -77 11 7 4 147 -8 160 -5 5 -29 5 -53 2 -40
-6 -46 -11 -60 -44 l-15 -37 5 48 c5 38 3 47 -10 47 -8 0 -21 2 -29 4 -7 2
-22 1 -33 -1z m35 -23 c0 -5 -4 -10 -10 -10 -5 0 -10 5 -10 10 0 6 5 10 10 10
6 0 10 -4 10 -10z m-15 -20 c9 -14 -69 -95 -83 -86 -18 11 -15 22 19 61 31 35
53 44 64 25z"/>
<path d="M9939 11464 c-18 -39 -19 -50 -8 -75 6 -17 27 -42 46 -56 38 -29 37
-45 -1 -19 -25 16 -44 7 -31 -14 12 -19 66 -41 85 -35 32 10 24 34 -30 91 -46
49 -49 54 -39 83 6 16 17 35 25 42 16 13 10 29 -12 29 -8 0 -24 -21 -35 -46z"/>
<path d="M9726 11468 c-7 -13 -18 -32 -24 -43 -11 -22 -10 -23 -27 30 -2 8
-13 15 -24 15 -21 0 -71 -53 -71 -75 0 -7 -7 -20 -15 -29 -20 -19 -7 -79 18
-84 12 -3 16 5 15 35 0 40 15 87 35 111 10 12 13 11 18 -9 4 -13 4 -43 1 -66
-4 -38 -2 -43 15 -43 14 0 28 19 52 73 24 51 35 66 38 52 24 -112 44 -144 71
-112 8 10 7 17 -7 29 -10 8 -23 42 -30 77 -10 49 -16 61 -31 61 -11 0 -26 -10
-34 -22z"/>
<path d="M8433 11445 c-21 -21 -32 -39 -27 -47 4 -6 8 -33 9 -59 3 -84 47
-104 102 -46 58 61 66 100 33 155 -28 45 -70 44 -117 -3z m97 -24 c14 -35 7
-61 -27 -101 -32 -39 -49 -38 -57 3 -5 23 -1 45 16 79 27 55 50 61 68 19z"/>
<path d="M2818 11459 c-21 -12 -41 -73 -33 -99 8 -26 39 -26 76 1 l29 20 0
-28 c0 -32 25 -73 44 -73 7 0 21 10 32 21 19 22 19 22 -9 17 -23 -4 -28 -1
-33 19 -4 13 -4 42 -1 64 3 21 1 42 -5 45 -5 3 -28 -12 -50 -35 -23 -22 -45
-41 -50 -41 -15 0 2 44 23 59 10 7 19 17 19 21 0 13 -25 18 -42 9z"/>
<path d="M9440 11463 c0 -4 5 -28 11 -52 7 -32 6 -47 -2 -58 -17 -19 14 -54
33 -35 18 18 -2 146 -24 150 -10 2 -18 0 -18 -5z"/>
<path d="M11376 11462 c-2 -4 -7 -25 -11 -47 -12 -75 -15 -85 -30 -85 -14 0
-23 16 -54 94 -9 21 -15 26 -23 18 -16 -16 21 -111 52 -134 48 -35 74 -4 86
101 4 41 3 61 -4 61 -6 0 -13 -3 -16 -8z"/>
<path d="M4738 11455 c-3 -4 1 -19 9 -35 21 -42 0 -85 -41 -85 -25 0 -31 5
-40 39 -14 48 -39 62 -34 20 2 -17 8 -28 16 -26 16 3 16 -15 0 -20 -8 -3 -3
-14 14 -31 29 -29 58 -28 95 5 l21 20 7 -30 c9 -41 30 -56 75 -55 64 3 151 57
135 83 -4 7 -19 2 -42 -16 -24 -18 -52 -29 -84 -32 l-49 -5 0 39 c0 48 32 104
60 104 26 0 26 17 0 25 -28 9 -55 -9 -70 -46 l-14 -32 -11 39 c-10 35 -32 54
-47 39z"/>
<path d="M8277 11452 c-4 -6 -5 -29 -1 -51 4 -22 4 -50 1 -63 -8 -29 -55 -80
-68 -73 -19 12 -8 72 21 119 17 26 28 51 25 56 -21 34 -85 -75 -85 -144 0 -51
18 -71 55 -62 33 8 85 80 86 120 1 30 1 30 8 6 4 -14 2 -46 -5 -72 -6 -26 -15
-74 -19 -107 l-7 -59 -33 14 c-53 22 -65 11 -65 -56 0 -63 26 -110 60 -110 24
0 60 46 60 75 0 14 7 25 20 28 24 6 27 35 4 44 -17 6 -14 62 11 163 8 30 11
67 8 82 -7 35 -67 106 -76 90z m-14 -353 c22 -10 24 -15 16 -46 -11 -50 -27
-63 -45 -39 -16 22 -19 96 -4 96 5 0 20 -5 33 -11z"/>
<path d="M8658 11438 c-13 -20 -28 -66 -45 -135 -4 -17 -1 -23 11 -23 9 0 18
6 20 13 29 104 38 125 58 130 18 5 19 8 8 21 -18 22 -35 20 -52 -6z"/>
<path d="M11054 11433 c-27 -29 -39 -65 -30 -88 8 -22 59 -19 89 5 l26 21 7
-25 c12 -50 74 -75 74 -30 0 10 -5 14 -15 10 -23 -9 -38 31 -32 86 6 49 -5 62
-30 37 -8 -8 -17 -8 -31 0 -28 15 -30 15 -58 -16z m60 -21 c7 -12 -31 -52 -49
-52 -19 0 -19 10 1 38 15 22 39 29 48 14z"/>
<path d="M11512 11433 c-24 -10 -73 -93 -67 -113 10 -30 49 -35 95 -12 38 19
40 19 56 1 23 -25 84 -25 134 1 45 23 48 30 21 54 -19 17 -39 7 -27 -13 8 -13
-47 -33 -80 -29 -28 3 -29 5 -26 51 2 37 0 47 -12 47 -9 0 -16 -6 -16 -14 0
-24 -43 -66 -77 -75 -25 -7 -33 -6 -33 3 0 23 41 66 61 66 14 0 19 6 17 17 -3
18 -24 26 -46 16z"/>
<path d="M8807 11423 c-3 -4 -6 -39 -8 -78 -3 -57 -1 -70 11 -70 12 0 16 16
18 69 3 62 -8 101 -21 79z"/>
<path d="M13386 11333 c-12 -12 -6 -33 9 -33 8 0 15 6 15 14 0 17 -14 28 -24
19z"/>
<path d="M9340 11323 c0 -17 19 -35 29 -29 18 12 12 36 -9 36 -11 0 -20 -3
-20 -7z"/>
<path d="M14157 11294 c-14 -14 -7 -35 11 -32 9 2 17 10 17 17 0 16 -18 25
-28 15z"/>
<path d="M10254 11249 c-3 -6 -2 -14 5 -18 7 -5 8 -24 1 -66 -13 -76 -13 -75
4 -75 15 0 21 21 31 113 6 53 5 57 -14 57 -11 0 -23 -5 -27 -11z"/>
<path d="M4135 11139 c-15 -22 -29 -47 -32 -55 -4 -12 -15 -14 -45 -9 -22 4
-50 3 -62 -3 -11 -6 -30 -13 -40 -16 -15 -5 -17 -9 -8 -18 7 -7 12 -33 12 -59
0 -32 6 -55 21 -73 11 -14 17 -31 13 -38 -4 -7 -31 -50 -61 -95 -54 -85 -60
-98 -44 -107 8 -5 79 97 126 180 13 24 27 33 54 38 50 8 140 62 153 92 10 20
8 28 -11 48 -13 14 -36 30 -52 36 -16 7 -27 16 -24 20 3 5 -1 11 -7 13 -9 4
-8 6 3 6 19 1 62 58 54 71 -11 18 -25 10 -50 -31z m-86 -161 c-16 -32 -33 -58
-38 -58 -22 0 -29 88 -9 108 6 6 26 11 44 9 l32 -2 -29 -57z m106 48 c42 -18
44 -37 8 -66 -27 -21 -87 -50 -104 -50 -5 0 6 29 23 65 18 36 34 65 35 65 2 0
19 -7 38 -14z"/>
<path d="M15618 11133 c-9 -2 -19 -12 -23 -21 -12 -30 -33 -227 -25 -236 18
-19 27 8 34 94 8 109 18 137 47 142 31 4 37 28 7 27 -12 -1 -30 -3 -40 -6z"/>
<path d="M4460 11110 c-8 -5 -38 -10 -66 -10 -60 0 -70 -7 -48 -32 13 -13 20
-15 30 -7 8 6 21 9 29 5 8 -3 26 -1 40 4 43 16 27 2 -21 -19 -62 -28 -57 -52
13 -66 90 -17 108 -61 38 -90 -44 -19 -115 -19 -151 0 -34 17 -80 20 -90 4
-13 -21 22 -38 101 -47 85 -10 141 0 190 32 53 35 16 126 -51 126 -34 0 -37
14 -6 28 44 19 86 58 78 70 -9 14 -65 16 -86 2z"/>
<path d="M3065 11058 c4 -24 11 -92 14 -153 5 -88 9 -110 22 -113 11 -2 19 11
28 47 7 27 19 57 27 68 11 14 13 15 8 2 -8 -24 14 -96 31 -103 19 -7 31 12 16
27 -6 6 -11 30 -11 53 0 23 -3 49 -6 58 -10 26 -42 18 -61 -15 l-18 -31 -7 64
c-12 110 -19 138 -35 138 -13 0 -14 -8 -8 -42z"/>
<path d="M2701 11069 c-57 -29 -131 -100 -131 -125 0 -32 27 -61 72 -78 62
-24 298 -84 317 -81 28 4 18 30 -14 33 -49 5 -257 62 -294 80 -54 26 -61 46
-28 80 45 47 130 86 171 78 19 -4 39 -13 46 -21 16 -19 40 -19 40 0 0 22 -45
47 -93 52 -30 3 -54 -2 -86 -18z"/>
<path d="M3576 10999 c-14 -17 -26 -35 -26 -40 0 -5 -9 -9 -20 -9 -20 0 -28
-24 -12 -34 9 -5 7 -118 -3 -214 -5 -47 -3 -53 12 -50 20 4 32 52 32 141 1 53
3 57 24 57 40 0 104 54 116 97 15 53 -6 83 -58 83 -31 0 -44 -6 -65 -31z m94
-29 c0 -35 -38 -77 -77 -86 -31 -8 -36 -2 -28 34 9 41 48 82 80 82 21 0 25 -4
25 -30z"/>
<path d="M3280 10962 c-46 -46 -53 -104 -14 -119 15 -6 29 -2 87 22 14 6 17 2
17 -19 0 -14 5 -26 10 -26 6 0 13 -1 17 -2 4 -2 8 20 9 47 0 28 3 59 5 69 5
26 -18 32 -26 7 -6 -20 -80 -71 -103 -71 -7 0 -12 6 -12 14 0 20 49 76 67 76
8 0 13 6 11 13 -8 23 -38 18 -68 -11z"/>
<path d="M6697 10372 c-2 -11 -1 -26 4 -33 5 -8 3 -16 -3 -20 -9 -6 -8 -11 1
-22 9 -12 9 -16 -1 -19 -20 -7 -25 -308 -5 -308 11 0 15 35 21 183 4 100 8
193 9 206 2 29 -18 39 -26 13z"/>
<path d="M7929 10328 c-18 -35 -38 -84 -45 -111 -7 -26 -24 -67 -38 -91 -27
-46 -122 -133 -133 -122 -15 14 28 77 62 92 40 17 46 34 11 34 -31 0 -80 -40
-95 -79 -18 -41 -11 -86 12 -86 24 0 120 72 140 104 l15 24 7 -40 c11 -66 80
-114 130 -91 39 18 32 37 -13 31 -95 -13 -112 72 -48 240 20 54 39 111 43 127
10 51 -15 34 -48 -32z"/>
<path d="M7160 10369 c0 -6 5 -19 11 -30 10 -20 2 -183 -17 -338 -6 -49 -5
-53 12 -49 12 2 19 12 20 28 3 97 4 100 24 100 12 0 20 7 20 17 0 23 51 -27
91 -89 28 -44 59 -63 59 -38 0 13 -77 120 -99 138 -14 11 -7 21 62 85 42 40
77 78 77 85 0 13 -30 17 -30 4 0 -4 -43 -46 -96 -92 l-97 -84 7 102 c8 108 -3
172 -30 172 -8 0 -14 -5 -14 -11z"/>
<path d="M9673 10368 c-23 -11 -29 -28 -16 -41 3 -4 12 -2 20 4 13 11 123 6
144 -6 4 -3 -34 -47 -85 -98 -69 -68 -98 -104 -111 -140 -22 -58 -10 -97 29
-97 35 0 42 18 12 30 -22 8 -24 12 -16 40 18 61 70 124 170 205 69 55 59 79
-43 101 -73 16 -75 16 -104 2z"/>
<path d="M5200 10355 c0 -15 26 -32 36 -23 2 3 2 13 -2 22 -8 20 -34 21 -34 1z"/>
<path d="M4612 10347 c-5 -6 -10 -36 -11 -66 -1 -62 -9 -71 -63 -71 -27 0 -38
-4 -38 -15 0 -8 3 -14 8 -14 4 1 26 1 50 0 l42 -1 0 -74 c0 -82 6 -106 25
-106 9 0 11 21 7 90 l-5 90 39 0 c22 0 45 4 53 9 25 16 2 29 -45 23 l-46 -5 7
71 c6 69 -2 95 -23 69z"/>
<path d="M9066 10319 c-3 -17 -6 -69 -6 -115 0 -80 -1 -84 -22 -85 -13 -1 -27
-1 -32 0 -12 2 -36 -20 -31 -29 3 -5 23 -6 44 -3 45 6 43 8 56 -91 9 -68 23
-102 36 -89 8 8 8 27 1 64 -6 30 -13 70 -15 90 l-5 37 56 7 c31 4 65 11 76 17
30 16 4 27 -44 18 -96 -19 -93 -23 -88 83 3 50 7 98 9 106 2 8 -3 16 -12 18
-12 3 -18 -5 -23 -28z"/>
<path d="M4110 10314 c-13 -34 -13 -34 8 -27 22 8 31 23 25 40 -8 21 -23 15
-33 -13z"/>
<path d="M8524 10316 c-3 -13 -4 -30 -3 -37 4 -19 -10 -161 -22 -233 -13 -76
-5 -126 21 -126 26 0 36 21 17 35 -14 10 -15 23 -2 136 24 216 25 249 9 249
-7 0 -16 -11 -20 -24z"/>
<path d="M3785 10259 c-54 -34 -105 -78 -105 -91 0 -17 23 -7 73 31 28 22 53
38 54 37 2 -2 -13 -37 -32 -78 -20 -41 -37 -89 -39 -106 -3 -17 -7 -36 -10
-41 -9 -14 4 -41 20 -41 8 0 31 16 52 35 l38 34 12 -33 c18 -50 56 -80 99 -79
73 2 88 57 53 192 -10 41 -17 78 -14 82 7 13 -17 22 -28 11 -7 -7 -3 -40 12
-104 14 -58 20 -105 16 -122 -6 -24 -11 -27 -44 -24 -34 3 -39 8 -64 58 -15
31 -33 54 -40 52 -7 -2 -28 -17 -45 -35 -27 -25 -33 -27 -33 -13 0 24 47 141
81 202 41 73 25 83 -56 33z"/>
<path d="M6845 10280 c-8 -12 21 -60 35 -60 13 0 13 12 0 44 -10 27 -24 33
-35 16z"/>
<path d="M2728 10274 c-3 -3 -2 -20 3 -37 6 -18 13 -96 16 -174 5 -110 9 -143
20 -143 10 0 13 24 12 113 -2 165 -24 269 -51 241z"/>
<path d="M4105 10260 c3 -5 3 -10 -2 -10 -11 0 -15 -298 -3 -305 5 -3 25 26
46 65 20 38 40 70 44 70 12 0 28 -57 34 -125 3 -33 5 -61 6 -62 0 -2 7 -3 15
-3 18 0 19 32 4 116 -19 107 -58 133 -102 69 l-24 -35 4 87 c3 63 1 88 -9 94
-10 7 -10 9 0 9 6 0 12 9 12 20 0 11 -7 20 -16 20 -8 0 -12 -4 -9 -10z"/>
<path d="M2390 10224 c-40 -27 -51 -45 -39 -61 15 -17 29 -17 29 2 0 19 46 49
65 41 17 -6 20 -39 5 -66 -5 -10 -26 -24 -45 -30 -50 -16 -39 -36 17 -32 38 3
48 0 62 -19 14 -21 14 -24 -2 -42 -47 -52 -147 -65 -147 -19 0 6 -3 12 -7 12
-5 0 -12 0 -18 0 -19 0 -10 -39 12 -54 44 -31 132 -13 183 38 33 33 32 62 -4
95 -21 20 -27 32 -20 42 12 19 11 66 -1 90 -13 24 -56 25 -90 3z"/>
<path d="M5300 10180 c-28 -28 -25 -51 10 -95 31 -39 47 -81 36 -92 -4 -4 -22
-1 -42 6 -38 14 -50 10 -41 -13 8 -19 75 -32 96 -19 29 19 19 87 -19 135 l-33
41 27 22 c26 21 26 35 -1 35 -7 0 -22 -9 -33 -20z"/>
<path d="M8660 10175 c0 -18 5 -25 19 -25 26 0 36 17 21 35 -19 23 -40 18 -40
-10z"/>
<path d="M5198 10113 c-5 -65 4 -99 23 -87 5 3 9 39 9 80 0 56 -3 74 -14 74
-10 0 -15 -19 -18 -67z"/>
<path d="M7505 10152 c-40 -25 -70 -81 -61 -116 8 -33 44 -48 105 -44 62 4 63
23 1 24 -50 1 -80 16 -80 40 0 8 10 14 25 14 34 0 105 37 105 54 0 35 -56 51
-95 28z m35 -37 c-33 -19 -46 -19 -30 0 7 8 22 15 34 15 20 -1 20 -2 -4 -15z"/>
<path d="M6008 10140 c-31 -24 -51 -69 -46 -106 3 -25 7 -29 33 -28 17 0 37 4
45 7 10 5 20 -3 32 -23 13 -23 24 -30 48 -30 20 0 30 5 30 15 0 9 -9 15 -25
15 -21 0 -25 5 -25 31 0 17 9 44 21 60 18 25 18 30 5 35 -10 4 -25 -5 -42 -25
-27 -33 -82 -67 -91 -57 -10 9 7 56 28 77 15 15 28 19 50 14 22 -5 29 -3 29 8
0 31 -56 36 -92 7z"/>
<path d="M6947 10130 c-31 -36 -53 -108 -39 -122 16 -16 32 0 32 30 0 31 36
96 49 88 5 -3 12 -27 15 -53 15 -112 18 -123 32 -123 12 0 13 12 8 68 -14 138
-45 174 -97 112z"/>
<path d="M4353 10110 c-31 -13 -56 -55 -57 -98 -1 -33 2 -37 24 -40 15 -2 41
8 62 22 l36 24 6 -24 c4 -13 12 -24 19 -24 9 0 13 20 14 69 l1 69 -30 6 c-38
7 -47 7 -75 -4z m57 -32 c0 -16 -61 -78 -77 -78 -16 0 -16 3 1 45 9 21 23 35
38 38 12 2 26 5 31 6 4 0 7 -4 7 -11z"/>
<path d="M8796 10099 c-37 -29 -35 -65 5 -87 18 -9 43 -27 58 -39 21 -18 23
-23 10 -28 -28 -11 -93 18 -107 48 -7 15 -18 27 -24 27 -16 0 -1 -63 19 -78
29 -21 96 -35 123 -25 50 17 33 61 -42 109 -21 14 -38 28 -38 33 0 5 14 15 30
23 17 7 30 19 30 25 0 20 -34 15 -64 -8z"/>
<path d="M6806 10102 c-9 -16 9 -107 22 -107 16 0 16 2 8 63 -6 48 -17 64 -30
44z"/>
<path d="M8649 10068 c-3 -7 -10 -47 -15 -90 -5 -38 -3 -48 9 -48 13 0 27 61
27 123 0 14 -16 25 -21 15z"/>
<path d="M6160 9984 c0 -8 5 -12 10 -9 6 3 10 10 10 16 0 5 -4 9 -10 9 -5 0
-10 -7 -10 -16z"/>
<path d="M2557 9951 c-3 -11 1 -28 8 -38 13 -17 14 -17 20 -1 9 22 3 50 -11
55 -6 2 -14 -5 -17 -16z"/>
<path d="M9679 9801 c-21 -17 -22 -20 -7 -26 21 -8 58 11 58 30 0 21 -23 19
-51 -4z"/>
<path d="M13411 9505 c-39 -36 -61 -83 -76 -165 -4 -19 -11 -50 -17 -68 l-10
-34 -79 6 c-62 4 -79 3 -79 -8 0 -14 49 -26 108 -26 17 0 32 -3 32 -6 0 -9
-56 -87 -84 -117 -26 -28 -27 -47 -2 -47 8 0 38 36 67 80 l54 80 52 0 52 0
-15 -27 c-29 -58 -7 -106 38 -82 55 28 68 49 68 110 0 66 -12 80 -43 52 -15
-13 -40 -20 -80 -22 -53 -2 -58 0 -53 16 11 38 40 168 38 175 -1 4 13 23 32
42 18 20 31 38 28 41 -3 3 5 5 17 5 13 0 21 5 19 12 -8 23 -27 19 -67 -17z
m59 -367 c-47 -38 -53 -17 -12 44 l27 42 3 -34 c3 -26 -2 -39 -18 -52z"/>
<path d="M14480 9516 c0 -2 -7 -19 -15 -38 -12 -29 -12 -38 -1 -53 11 -16 15
-12 29 33 21 62 21 62 2 62 -8 0 -15 -2 -15 -4z"/>
<path d="M5413 9466 c1 -20 5 -36 11 -36 5 0 3 -6 -6 -12 -9 -7 -24 -41 -33
-75 -10 -35 -22 -63 -26 -63 -5 0 -9 -8 -9 -17 0 -14 -2 -15 -9 -5 -9 15 -42
13 -42 -3 0 -5 12 -11 26 -13 29 -4 29 -4 10 -68 -18 -61 -19 -84 -2 -84 8 0
20 30 32 75 10 42 23 79 29 84 6 5 28 11 49 15 49 9 44 32 -6 28 l-35 -3 19
63 c10 35 16 71 13 81 -3 9 0 17 6 17 18 0 7 44 -12 48 -13 2 -16 -4 -15 -32z"/>
<path d="M3265 9468 c-2 -7 -11 -73 -20 -147 -13 -109 -13 -136 -3 -149 9 -10
9 -13 1 -9 -13 8 -20 -33 -25 -133 -2 -43 0 -55 12 -55 12 0 17 29 27 145 6
80 14 160 17 178 3 21 1 32 -7 32 -8 0 -8 3 1 9 18 11 29 126 13 135 -6 4 -13
1 -16 -6z"/>
<path d="M7947 9474 c-4 -4 -7 -44 -7 -89 0 -46 -3 -97 -6 -115 -7 -30 -9 -32
-42 -26 -73 11 -152 -59 -152 -135 0 -79 48 -76 135 8 51 49 64 68 80 122 31
103 25 268 -8 235z m-63 -260 c9 -3 16 -12 16 -19 0 -14 -104 -115 -119 -115
-6 0 -11 13 -11 29 0 42 42 90 97 110 1 1 8 -2 17 -5z"/>
<path d="M10396 9468 c-3 -7 -7 -24 -10 -38 -17 -83 -29 -122 -39 -125 -7 -2
-38 -9 -70 -15 -33 -7 -61 -18 -64 -26 -8 -22 3 -28 34 -16 15 6 42 13 58 17
l30 5 0 -82 c1 -88 8 -123 25 -113 6 4 8 33 4 73 -5 70 5 127 23 127 19 0 28
16 14 25 -12 7 -12 17 1 67 9 32 16 68 16 80 1 26 -16 41 -22 21z"/>
<path d="M8375 9458 c-3 -7 -13 -40 -23 -73 -16 -55 -20 -60 -55 -70 -21 -6
-38 -14 -38 -18 -1 -24 8 -28 34 -16 35 16 41 8 29 -33 -6 -18 -14 -57 -17
-85 -6 -44 -4 -53 8 -53 10 0 17 14 22 43 3 23 11 66 16 95 l11 54 64 -6 c52
-5 64 -3 64 9 0 10 -18 16 -60 21 -67 7 -66 5 -33 98 16 48 16 46 -2 46 -9 0
-18 -6 -20 -12z"/>
<path d="M2601 9411 c-26 -26 -63 -78 -85 -115 -33 -57 -43 -66 -67 -66 -19 0
-29 -5 -29 -15 0 -8 7 -15 15 -15 21 0 20 -5 -21 -71 -22 -35 -34 -65 -30 -75
5 -13 9 -14 21 -4 8 7 15 17 15 22 0 6 15 34 33 64 l32 54 50 -6 c28 -3 54 -8
58 -11 5 -3 6 -38 2 -79 -5 -71 -4 -74 16 -74 16 0 20 5 16 20 -6 25 19 233
38 318 8 35 15 72 15 83 0 33 -32 21 -79 -30z m25 -90 c-9 -39 -16 -81 -16
-94 0 -14 -7 -27 -15 -31 -8 -3 -15 -2 -15 3 0 5 -16 12 -35 15 -19 4 -35 9
-35 12 0 9 72 118 99 150 14 16 27 27 29 22 2 -4 -3 -39 -12 -77z"/>
<path d="M6075 9447 c-8 -19 10 -47 31 -47 19 0 17 10 -6 40 -17 22 -19 23
-25 7z"/>
<path d="M9567 9433 c-2 -4 -13 -43 -23 -87 l-18 -78 -43 5 c-23 2 -45 2 -48
-1 -12 -12 20 -32 50 -32 33 0 33 0 25 -37 -4 -21 -11 -62 -14 -90 -6 -44 -4
-52 8 -47 15 6 19 21 32 99 10 65 14 75 34 75 10 0 21 6 23 13 4 10 6 10 6 0
1 -7 7 -13 15 -13 9 0 12 8 8 25 -5 28 -27 33 -36 8 -5 -11 -10 -13 -17 -6 -6
6 -4 31 6 74 9 35 17 70 18 78 2 15 -18 27 -26 14z"/>
<path d="M4827 9388 c-3 -18 -15 -85 -26 -148 -12 -63 -21 -127 -21 -141 0
-32 20 -51 40 -39 12 8 13 13 2 30 -10 17 -8 45 13 165 29 168 29 165 11 165
-7 0 -16 -14 -19 -32z"/>
<path d="M14422 9346 l-23 -75 -35 6 c-41 7 -47 -12 -9 -27 14 -5 25 -13 25
-16 0 -10 -48 -135 -60 -156 -11 -19 6 -36 21 -21 5 5 24 47 42 93 33 85 33
85 71 88 47 4 89 -5 81 -18 -14 -22 19 -19 44 4 32 31 41 26 41 -25 0 -29 -6
-43 -31 -63 -32 -27 -79 -35 -79 -13 0 6 7 25 15 41 9 16 12 33 7 38 -13 13
-42 -26 -49 -65 -4 -30 -2 -38 20 -51 30 -20 67 -9 111 32 39 38 48 66 36 113
-11 39 -40 64 -48 41 -2 -6 -10 -8 -19 -5 -11 4 -14 2 -9 -5 4 -7 2 -12 -3
-12 -6 0 -11 5 -11 10 0 6 -28 10 -65 10 -36 0 -65 2 -65 3 0 2 9 29 19 60 11
32 16 57 11 57 -5 0 -10 7 -12 15 -2 8 -13 -19 -26 -59z"/>
<path d="M3657 9403 c-4 -3 -7 -18 -7 -33 0 -14 -7 -52 -15 -84 -9 -33 -18
-92 -22 -132 -8 -97 5 -97 77 1 30 41 55 75 55 75 0 0 -1 -37 -3 -83 -3 -74
-1 -85 18 -102 17 -15 23 -17 29 -6 5 8 14 10 20 7 6 -4 11 -1 11 8 0 10 -8
15 -22 13 -21 -2 -23 3 -26 53 -3 49 10 148 25 186 3 9 -2 14 -13 14 -12 0
-36 -26 -67 -75 -27 -41 -55 -79 -63 -86 -16 -13 -15 -7 17 148 10 51 19 95
19 98 0 7 -25 6 -33 -2z"/>
<path d="M5020 9390 c12 -23 35 -22 35 1 0 8 -10 15 -23 17 -21 3 -22 1 -12
-18z"/>
<path d="M12491 9328 c-50 -86 -47 -83 -65 -69 -12 10 -22 9 -50 -4 -66 -32
-118 -110 -85 -130 6 -4 37 6 70 22 l59 30 0 -42 c0 -46 19 -71 46 -61 8 3 40
22 70 42 51 34 70 64 41 64 -19 0 -49 -35 -40 -45 5 -4 2 -5 -5 -1 -7 4 -28
-2 -47 -14 l-35 -22 0 34 c1 39 36 128 73 182 30 43 34 66 13 66 -8 0 -28 -24
-45 -52z m-82 -114 c-17 -21 -89 -57 -89 -45 0 15 63 61 84 61 16 0 16 -2 5
-16z"/>
<path d="M14986 9371 c-10 -16 5 -41 25 -41 15 0 17 4 10 22 -9 25 -26 34 -35
19z"/>
<path d="M4252 9305 c-15 -31 -18 -45 -9 -45 8 0 8 -3 -2 -9 -8 -5 -19 -24
-25 -42 -10 -31 -135 -149 -158 -149 -23 0 8 50 63 101 32 31 59 59 59 63 0
32 -117 -60 -146 -116 -16 -31 -19 -74 -5 -82 16 -10 54 10 113 57 l56 46 4
-59 c5 -70 19 -90 64 -90 31 0 48 12 49 35 1 6 6 9 13 8 14 -3 16 13 3 21 -4
3 -16 -3 -26 -14 -70 -77 -102 67 -43 190 34 70 46 130 26 130 -8 0 -24 -20
-36 -45z"/>
<path d="M10825 9312 c-45 -28 -57 -47 -66 -103 -9 -59 -2 -109 16 -109 9 0
13 19 13 63 0 35 5 73 11 85 17 32 67 55 90 42 27 -14 40 9 16 27 -25 18 -44
16 -80 -5z"/>
<path d="M3376 9311 c-3 -4 1 -17 9 -27 11 -15 16 -16 26 -7 10 10 9 15 -1 28
-14 17 -26 19 -34 6z"/>
<path d="M14183 9303 c-42 -21 -44 -38 -15 -97 20 -41 22 -53 13 -74 -11 -22
-16 -24 -52 -18 -35 6 -40 4 -37 -11 2 -14 15 -19 50 -21 43 -3 48 -1 62 27
21 39 20 54 -4 101 -11 22 -20 43 -20 48 0 12 49 34 61 27 14 -9 29 4 22 20
-7 19 -39 18 -80 -2z"/>
<path d="M10648 9260 c-6 -55 -23 -80 -71 -103 -46 -23 -65 -8 -69 51 -4 63
-23 56 -23 -9 0 -44 4 -55 26 -71 33 -25 67 -17 120 31 38 34 42 42 47 94 4
46 2 57 -10 57 -11 0 -17 -14 -20 -50z"/>
<path d="M5163 9280 c-73 -39 -80 -62 -33 -110 32 -33 34 -38 21 -58 -5 -9
-24 -12 -52 -10 -42 3 -44 5 -47 36 -4 40 -26 38 -30 -2 -5 -44 22 -66 83 -66
88 0 113 56 53 118 l-33 33 25 19 c14 11 34 20 44 22 11 2 21 8 23 14 7 20
-21 22 -54 4z"/>
<path d="M6992 9283 c-45 -22 -82 -73 -82 -111 0 -41 35 -52 96 -29 41 15 43
15 49 -4 11 -34 95 -37 95 -4 0 11 -8 13 -30 9 -37 -8 -49 15 -31 60 17 39 19
65 6 67 -5 1 -19 8 -30 15 -25 18 -32 17 -73 -3z m67 -64 c-10 -20 -79 -59
-104 -59 -39 0 2 67 60 98 28 15 59 -12 44 -39z"/>
<path d="M9320 9282 c-53 -26 -53 -63 -1 -112 23 -22 41 -42 41 -45 0 -9 -81
-5 -100 5 -26 14 -39 -9 -15 -27 26 -19 120 -17 139 3 22 22 21 25 -29 74 -25
24 -45 50 -45 57 0 14 44 29 73 24 11 -1 17 4 17 18 0 27 -31 28 -80 3z"/>
<path d="M9665 9280 c-28 -17 -30 -23 -30 -76 0 -62 15 -81 35 -44 8 15 9 25
2 32 -15 15 5 66 29 73 10 4 28 4 38 0 23 -7 39 14 20 26 -23 14 -62 10 -94
-11z"/>
<path d="M10420 9284 c0 -12 9 -14 42 -12 59 4 63 28 4 28 -35 0 -46 -4 -46
-16z"/>
<path d="M11033 9285 c-36 -15 -83 -88 -83 -129 0 -70 52 -94 159 -76 38 6 77
17 87 24 22 17 10 40 -15 27 -10 -6 -48 -15 -84 -21 -59 -11 -71 -10 -93 5
-39 25 -28 54 30 76 48 18 86 45 86 61 0 10 -37 48 -47 48 -5 -1 -22 -7 -40
-15z m47 -35 c0 -5 -2 -10 -4 -10 -2 0 -21 -7 -42 -16 l-39 -16 24 26 c24 26
61 35 61 16z"/>
<path d="M11623 9248 c-13 -38 -38 -73 -87 -126 -49 -51 -66 -76 -59 -83 8 -8
21 0 44 25 29 33 59 50 44 26 -11 -19 6 -50 27 -50 12 0 38 18 59 40 l39 40
-6 -30 c-7 -31 11 -65 27 -54 5 3 9 23 9 45 0 24 12 63 30 99 52 104 32 122
-32 30 -20 -30 -56 -72 -79 -94 l-41 -41 6 37 c4 21 20 63 36 94 33 61 38 94
15 94 -8 0 -21 -21 -32 -52z"/>
<path d="M11912 9272 c-36 -32 -42 -68 -16 -107 22 -33 11 -45 -42 -45 -32 0
-44 -4 -44 -15 0 -23 91 -20 121 4 l22 18 -21 35 c-12 20 -22 43 -22 53 0 19
38 54 58 55 18 0 10 24 -9 28 -8 1 -29 -10 -47 -26z"/>
<path d="M6189 9283 c-1 -4 -1 -11 0 -15 0 -4 -5 -5 -12 -2 -7 2 -22 -5 -32
-16 -19 -21 -19 -22 3 -63 26 -49 27 -66 7 -93 -15 -19 -16 -18 -40 9 -25 28
-45 29 -45 2 0 -16 52 -55 73 -55 44 0 73 95 42 136 -22 29 -18 53 10 66 14 6
24 16 22 22 -4 13 -27 20 -28 9z"/>
<path d="M14812 9279 c-46 -9 -84 -49 -126 -129 -39 -74 -43 -90 -22 -90 18 0
66 70 66 97 0 28 66 93 94 93 13 0 26 7 29 15 8 20 -2 23 -41 14z"/>
<path d="M5991 9189 c-24 -105 -26 -122 -8 -117 12 5 39 90 52 167 5 33 4 41
-8 41 -11 0 -21 -26 -36 -91z"/>
<path d="M8099 9257 c-64 -43 -98 -119 -65 -146 15 -13 62 4 99 37 15 14 17
13 17 -6 0 -31 11 -52 27 -52 11 0 13 7 8 29 -3 16 -2 46 4 65 7 28 6 43 -6
66 -17 36 -39 38 -84 7z m62 -35 c-19 -34 -96 -91 -108 -79 -10 11 28 65 58
85 37 23 64 19 50 -6z"/>
<path d="M8558 9273 c-21 -5 -128 -129 -128 -149 0 -32 33 -26 92 16 l61 43
-7 -44 c-8 -60 10 -94 49 -94 20 0 31 6 33 18 3 13 -2 16 -20 15 -23 -3 -23
-2 -21 85 1 48 -1 87 -6 87 -4 0 -16 -9 -26 -21 -11 -11 -41 -36 -68 -56 l-50
-35 43 51 c23 28 51 53 61 56 33 11 21 35 -13 28z"/>
<path d="M9942 9268 c-9 -9 -9 -15 0 -26 9 -11 4 -21 -25 -48 -20 -19 -50 -37
-66 -40 -29 -6 -31 -5 -31 25 0 20 -5 31 -14 31 -21 0 -27 -25 -14 -60 10 -29
13 -31 49 -26 47 7 110 45 127 78 24 44 4 96 -26 66z"/>
<path d="M10059 9232 c-110 -111 -18 -201 139 -135 25 10 32 17 24 25 -8 8
-27 6 -67 -7 -60 -18 -99 -12 -111 19 -10 25 26 77 62 92 30 12 34 17 24 29
-18 22 -29 19 -71 -23z"/>
<path d="M1991 9250 c-16 -9 -24 -57 -12 -64 11 -7 51 23 51 38 0 20 -24 36
-39 26z"/>
<path d="M3881 9225 c-55 -63 -64 -142 -21 -185 23 -23 60 -27 60 -6 0 8 7 16
15 20 8 3 15 10 15 16 0 14 -47 13 -56 -2 -5 -7 -11 -5 -21 7 -16 23 -17 35
-2 35 7 0 32 16 55 36 33 26 44 43 44 63 0 59 -44 67 -89 16z m59 -12 c0 -10
-16 -31 -35 -46 -19 -15 -35 -25 -35 -22 0 21 47 85 62 85 4 0 8 -8 8 -17z"/>
<path d="M12054 9216 c-33 -33 -44 -51 -44 -75 0 -33 29 -71 54 -71 26 0 26
17 1 34 -28 19 -32 43 -10 72 12 16 14 17 15 2 0 -42 81 -24 93 21 6 26 -19
61 -45 61 -11 0 -40 -20 -64 -44z m76 -1 c0 -19 -24 -30 -41 -19 -9 5 -7 11 6
21 24 17 35 17 35 -2z"/>
<path d="M13640 9247 c-32 -16 -90 -102 -90 -133 0 -43 26 -25 56 39 28 60 31
62 69 65 52 4 71 10 59 21 -17 17 -69 21 -94 8z"/>
<path d="M15374 9247 c-6 -6 -27 -26 -47 -43 -56 -48 -63 -114 -14 -114 31 0
84 22 120 50 l27 21 0 -31 c0 -18 -10 -66 -22 -107 -21 -73 -23 -76 -75 -105
-60 -34 -81 -60 -93 -113 -8 -37 2 -101 19 -118 30 -30 84 42 130 172 l19 54
83 24 c80 23 120 45 106 59 -3 3 -43 -6 -88 -20 -45 -15 -83 -25 -85 -24 -1 2
6 35 17 73 26 96 24 185 -5 185 -7 0 -25 -14 -42 -31 -25 -27 -82 -59 -104
-59 -4 0 -10 9 -13 20 -3 11 -1 20 5 20 5 0 21 9 35 20 14 11 22 20 17 20 -5
0 6 8 24 18 18 9 34 22 35 27 3 15 -36 17 -49 2z m6 -408 c-26 -64 -58 -119
-71 -119 -16 0 -10 94 7 119 16 22 75 64 81 57 2 -2 -6 -28 -17 -57z"/>
<path d="M15105 9238 c-25 -14 -106 -86 -123 -110 -11 -15 -11 -19 1 -24 10
-3 31 12 58 41 56 61 119 94 119 63 0 -7 -11 -28 -24 -47 -31 -47 -42 -81 -24
-81 13 0 88 117 88 138 0 27 -60 40 -95 20z"/>
<path d="M14885 9212 c-6 -4 -19 -26 -29 -49 -11 -24 -25 -43 -33 -43 -20 0
-16 -18 8 -30 26 -14 27 -13 55 57 22 54 22 81 -1 65z"/>
<path d="M3446 9170 c-34 -51 -45 -100 -23 -100 9 0 18 12 22 28 7 34 41 79
51 69 4 -4 10 -34 12 -67 3 -40 9 -60 17 -60 9 0 12 18 11 63 -4 110 -42 139
-90 67z"/>
<path d="M4939 9173 c-6 -16 -12 -34 -13 -41 -1 -8 -9 -17 -16 -22 -11 -7 -11
-11 -1 -24 8 -9 21 -16 31 -16 13 0 17 10 18 41 1 22 6 48 12 58 9 18 4 31
-12 31 -5 0 -13 -12 -19 -27z"/>
<path d="M3346 9168 c-19 -61 -32 -138 -26 -148 11 -18 30 -3 30 23 1 12 7 45
14 72 8 28 12 53 9 58 -7 11 -23 8 -27 -5z"/>
<path d="M5586 8987 c-26 -26 -46 -83 -46 -130 0 -20 -6 -30 -20 -34 -22 -6
-28 -33 -6 -33 8 0 15 -17 19 -49 6 -50 40 -131 56 -131 18 0 19 15 1 49 -10
20 -21 53 -25 73 -7 35 -6 35 34 42 51 8 54 26 5 26 l-37 0 6 60 c9 103 51
136 111 89 l26 -20 0 20 c0 23 -30 45 -73 55 -21 5 -33 1 -51 -17z"/>
<path d="M6536 8982 c-2 -4 -7 -24 -11 -45 -6 -29 -4 -37 8 -37 14 0 27 -39
27 -86 0 -20 -4 -23 -22 -19 -48 12 -136 -53 -153 -113 -8 -29 51 -92 87 -92
52 0 112 63 123 130 5 32 -16 203 -31 253 -6 18 -19 23 -28 9z m21 -233 c24
-24 -23 -110 -68 -124 -26 -9 -69 23 -69 50 0 51 104 107 137 74z"/>
<path d="M3655 8968 c-2 -7 -13 -44 -23 -83 -15 -55 -23 -69 -36 -67 -21 4
-48 -16 -40 -29 3 -5 16 -9 30 -9 21 0 24 -5 24 -32 0 -18 -5 -51 -10 -73 -5
-22 -5 -44 -1 -48 14 -14 31 18 37 69 11 100 9 97 65 89 46 -6 51 -5 47 11 -2
15 -14 20 -51 22 -26 2 -47 7 -47 12 0 4 9 36 20 71 10 34 17 66 14 71 -8 12
-24 10 -29 -4z"/>
<path d="M2922 8913 c-6 -21 -16 -69 -22 -108 -7 -38 -19 -106 -27 -150 -27
-135 -27 -135 -10 -135 14 0 22 33 72 295 9 50 19 100 22 113 9 39 -23 25 -35
-15z"/>
<path d="M6978 8944 c-4 -3 -4 -22 -1 -41 7 -40 -6 -53 -49 -53 -19 0 -28 -5
-28 -16 0 -13 8 -15 39 -12 l39 3 7 -77 c4 -42 4 -91 0 -108 -6 -28 -4 -31 12
-28 16 3 18 14 16 111 l-2 107 35 0 c38 0 74 15 74 30 0 6 -21 8 -54 4 l-55
-7 -3 43 c-3 40 -16 59 -30 44z"/>
<path d="M2993 8888 c3 -18 1 -71 -5 -118 -13 -113 -14 -122 -24 -145 -12 -30
-11 -117 2 -122 7 -2 14 15 17 44 3 26 12 80 21 119 9 39 18 113 21 163 5 88
5 91 -16 91 -18 0 -21 -4 -16 -32z"/>
<path d="M3863 8884 c-4 -10 1 -22 12 -30 23 -17 29 -12 21 21 -7 28 -24 33
-33 9z"/>
<path d="M2446 8822 c-71 -51 -106 -150 -71 -199 18 -26 78 -40 108 -25 12 6
30 13 40 16 9 3 17 12 17 21 0 18 1 18 -45 -1 -122 -51 -141 83 -24 167 28 20
30 20 27 3 -2 -12 3 -19 12 -19 10 0 15 10 15 30 0 41 -28 43 -79 7z"/>
<path d="M2645 8830 c-4 -6 -1 -17 5 -25 9 -11 10 -15 1 -15 -16 0 -47 -73
-33 -78 6 -2 8 -10 5 -19 -16 -41 81 -59 117 -21 39 42 13 120 -51 152 -38 19
-36 19 -44 6z m82 -98 c11 -46 -55 -74 -77 -32 -12 22 -8 33 24 68 19 22 21
22 34 5 7 -10 15 -28 19 -41z"/>
<path d="M3363 8794 c-41 -24 -93 -94 -93 -126 0 -31 35 -48 98 -49 33 -1 65
2 71 6 24 14 -3 25 -64 25 -35 0 -67 4 -70 10 -16 26 47 99 108 125 21 9 35
20 32 25 -10 16 -38 11 -82 -16z"/>
<path d="M4633 8795 c-64 -29 -71 -58 -21 -90 39 -25 73 -69 64 -84 -13 -20
-73 -12 -104 14 -36 30 -42 31 -42 5 0 -30 56 -60 113 -60 41 0 49 3 59 25 16
34 -6 80 -54 116 l-39 28 33 17 c18 9 42 17 53 18 23 1 27 29 5 33 -8 2 -39
-8 -67 -22z"/>
<path d="M3135 8794 c-44 -22 -85 -81 -85 -121 0 -40 37 -84 51 -62 5 9 9 9 9
3 0 -16 49 -27 64 -15 7 6 16 8 19 4 4 -3 7 -2 7 4 0 6 -21 13 -46 17 -26 3
-53 11 -60 17 -17 14 -18 39 -1 39 6 0 32 10 57 23 35 17 46 28 48 50 3 26
-12 57 -27 57 -3 0 -19 -7 -36 -16z m35 -33 c0 -12 -21 -28 -55 -41 l-30 -11
29 30 c29 30 56 41 56 22z"/>
<path d="M4055 8805 c-5 -2 -23 -6 -38 -9 -21 -5 -33 -18 -47 -49 -11 -23 -20
-52 -20 -64 0 -27 25 -53 52 -53 21 0 21 0 -1 24 -21 22 -22 28 -12 59 15 46
34 61 66 53 39 -10 34 -49 -10 -79 -30 -20 -33 -26 -19 -31 10 -4 20 -3 23 1
3 4 15 13 26 19 11 6 26 22 34 35 11 21 11 29 -2 62 -15 34 -26 41 -52 32z"/>
<path d="M4315 8788 c-16 -12 -42 -32 -57 -46 l-26 -24 -4 23 c-1 13 -10 25
-20 27 -13 3 -15 -3 -11 -35 3 -30 -1 -45 -21 -72 -14 -19 -26 -41 -26 -48 0
-27 30 -11 59 30 28 42 100 112 106 105 2 -2 -3 -26 -10 -55 -17 -66 -8 -102
33 -126 28 -16 38 -17 86 -7 51 10 97 42 82 57 -4 4 -21 0 -39 -9 -79 -40
-137 -25 -137 36 0 18 9 59 20 91 27 78 18 91 -35 53z"/>
<path d="M6696 8781 c-10 -11 -15 -24 -11 -30 3 -7 0 -8 -9 -5 -11 4 -17 -4
-21 -30 -4 -19 -4 -39 0 -45 9 -16 51 -13 85 4 29 15 30 15 30 -10 0 -32 47
-82 62 -67 7 7 4 19 -11 38 -19 24 -21 36 -16 76 10 73 2 88 -49 88 -30 0 -48
-6 -60 -19z m84 -17 c0 -28 -83 -93 -95 -74 -6 9 8 43 28 68 9 12 67 18 67 6z"/>
<path d="M7223 8778 c-61 -16 -105 -102 -71 -136 16 -16 47 -15 78 3 23 13 27
12 41 -7 13 -16 26 -20 66 -20 63 2 103 16 103 38 0 12 -5 14 -17 8 -30 -13
-114 -17 -125 -6 -7 7 -6 23 6 52 20 51 21 80 1 80 -8 0 -15 -5 -15 -10 0 -7
-6 -7 -17 -2 -10 5 -32 5 -50 0z m45 -50 c3 -17 -61 -68 -85 -68 -23 0 -14 38
15 65 30 28 65 30 70 3z"/>
<path d="M3826 8759 c-12 -18 -13 -25 -3 -31 9 -6 9 -8 0 -8 -16 0 -46 -58
-39 -76 9 -22 36 -17 36 8 0 12 10 41 21 66 25 50 13 81 -15 41z"/>
<path d="M5353 8765 c-3 -9 -18 -29 -34 -45 -16 -16 -29 -38 -29 -49 0 -28 34
-61 63 -61 27 0 86 34 93 55 9 23 -15 73 -46 95 -34 24 -39 25 -47 5z m52 -65
c14 -15 15 -23 6 -34 -17 -20 -60 -29 -77 -15 -19 15 -18 25 6 49 25 25 42 25
65 0z"/>
<path d="M7687 8644 c-11 -11 -8 -44 3 -44 15 0 24 30 13 41 -5 5 -12 6 -16 3z"/>
<path d="M8695 8230 c-4 -7 -34 -90 -66 -184 -32 -95 -69 -198 -83 -229 -20
-46 -22 -58 -12 -73 16 -21 34 -12 34 18 0 13 11 53 25 88 64 165 129 372 119
382 -6 6 -12 6 -17 -2z"/>
<path d="M8358 8185 c-42 -23 -108 -183 -108 -262 l0 -33 -56 0 c-70 0 -71
-23 -1 -28 45 -3 47 -4 47 -33 0 -24 -21 -81 -36 -98 -2 -2 -10 2 -19 9 -9 7
-19 10 -22 6 -13 -12 14 -41 38 -41 29 0 58 48 67 112 l7 48 47 5 c26 3 51 9
55 13 14 14 -19 25 -60 19 l-40 -5 7 44 c21 140 105 278 130 214 9 -23 26 -18
26 9 0 37 -36 46 -82 21z"/>
<path d="M8785 8189 c-10 -15 1 -23 20 -15 9 3 13 10 10 16 -8 13 -22 13 -30
-1z"/>
<path d="M8777 8153 c-3 -5 -16 -48 -30 -98 -14 -49 -44 -144 -67 -209 -26
-76 -38 -122 -31 -129 12 -12 31 0 31 21 0 9 18 69 40 132 22 63 49 147 59
185 11 39 23 78 26 88 5 12 2 17 -8 17 -9 0 -18 -3 -20 -7z"/>
<path d="M7376 8114 c-29 -35 -91 -76 -135 -89 -17 -5 -21 -4 -16 4 4 7 9 34
12 62 4 40 2 49 -11 49 -11 0 -16 -10 -16 -34 0 -18 -7 -49 -15 -69 -13 -31
-22 -37 -84 -56 -38 -12 -74 -21 -79 -21 -14 0 -25 -18 -18 -29 4 -5 33 -1 69
10 84 25 89 25 77 -7 -19 -49 -60 -203 -60 -224 0 -44 24 -12 42 56 58 215 56
210 107 229 44 17 60 25 116 61 l25 16 -14 -38 c-7 -22 -34 -89 -60 -151 -25
-62 -46 -119 -46 -128 0 -31 26 -12 69 50 24 35 54 74 67 86 l23 22 17 -42 c9
-22 19 -41 23 -41 4 0 5 -18 3 -40 -5 -54 18 -90 59 -90 44 0 119 21 119 33 0
5 8 16 18 23 12 9 14 16 6 24 -8 8 -19 4 -42 -14 -18 -16 -48 -29 -75 -32 -43
-6 -46 -5 -52 19 -10 40 -2 61 31 77 72 36 102 76 84 110 -16 30 -28 25 -83
-30 -28 -28 -51 -49 -52 -48 -2 2 -10 20 -18 41 -24 55 -44 58 -85 11 -19 -21
-32 -30 -27 -19 4 11 16 42 26 68 11 27 16 53 13 59 -4 7 -2 8 4 4 11 -7 16 7
15 42 -1 6 3 12 8 12 5 0 9 16 9 35 0 44 -16 44 -54 -1z m204 -219 c-7 -9 -23
-21 -34 -27 -16 -8 -14 -3 8 21 29 31 51 36 26 6z"/>
<path d="M5399 8123 c-1 -4 0 -25 1 -46 1 -21 -8 -63 -20 -93 -19 -47 -26 -54
-50 -54 -50 0 -90 -12 -90 -27 0 -12 10 -14 50 -8 56 8 57 7 35 -55 -19 -53
-19 -90 -1 -90 8 0 16 16 20 43 4 23 15 58 24 76 16 34 20 35 102 49 85 14
107 23 97 39 -4 5 -38 3 -82 -5 -41 -8 -78 -12 -82 -9 -3 4 2 24 11 45 20 43
19 133 -1 140 -7 2 -13 0 -14 -5z"/>
<path d="M3163 8043 c-7 -43 -24 -116 -38 -163 -31 -100 -38 -195 -15 -195 11
0 15 13 17 50 1 28 14 91 29 140 15 50 30 113 34 140 5 28 9 55 10 60 5 23 -1
45 -13 45 -8 0 -17 -27 -24 -77z"/>
<path d="M4820 8091 c0 -20 12 -41 21 -35 24 15 -8 -79 -83 -245 -30 -67 -34
-116 -8 -116 10 0 14 8 13 22 -2 13 22 78 52 146 57 129 62 153 44 206 -10 28
-39 45 -39 22z"/>
<path d="M6057 8083 c-4 -3 -7 -18 -7 -32 0 -14 -25 -83 -55 -153 -30 -70 -55
-132 -55 -137 0 -26 29 -7 59 39 30 46 87 98 97 88 2 -3 -3 -26 -12 -51 -15
-46 -12 -90 5 -71 13 14 41 104 41 131 0 18 -5 23 -27 23 -16 0 -39 -9 -53
-20 -14 -11 -29 -20 -35 -20 -5 0 -5 4 1 8 15 9 61 122 70 168 5 26 3 34 -8
34 -8 0 -18 -3 -21 -7z"/>
<path d="M3629 8060 c-2 -22 -3 -28 -12 -50 -32 -83 -63 -230 -53 -255 10 -28
30 -3 33 42 5 83 24 78 67 -17 15 -33 34 -60 42 -60 20 0 18 13 -16 80 l-30
59 51 51 c36 36 49 56 44 68 -5 14 -12 10 -44 -23 -21 -22 -42 -49 -49 -60
-10 -19 -12 -19 -28 -3 -17 16 -17 20 0 75 29 94 31 113 12 113 -9 0 -17 -9
-17 -20z"/>
<path d="M2478 8048 c-7 -13 -11 -26 -10 -30 1 -5 -2 -8 -7 -8 -5 0 -26 -30
-46 -67 -51 -93 -105 -162 -121 -156 -15 6 -18 -6 -8 -31 9 -23 29 -19 48 9
14 22 24 25 71 25 l55 0 0 -35 c0 -19 -5 -45 -11 -59 -14 -29 -4 -76 15 -76
13 0 26 60 26 126 0 29 3 33 26 31 37 -3 42 20 7 27 -26 6 -28 10 -26 44 9
134 9 160 -1 155 -6 -3 -5 0 2 8 14 15 16 59 2 59 -5 0 -15 -10 -22 -22z m-13
-205 c-4 -19 -12 -23 -46 -23 l-40 0 26 43 c14 23 34 57 43 76 l17 34 3 -53
c2 -30 1 -64 -3 -77z"/>
<path d="M11826 8035 c-6 -22 -12 -24 -69 -27 -47 -2 -62 -7 -62 -18 0 -12 11
-14 53 -12 63 5 64 16 -3 -145 -24 -57 -39 -105 -35 -108 33 -20 80 49 85 125
1 19 11 57 23 84 l22 48 55 -4 c41 -4 55 -1 55 9 0 7 -9 13 -21 13 -12 0 -23
8 -26 20 -3 11 -14 20 -24 20 -10 0 -21 5 -24 10 -11 17 -23 11 -29 -15z"/>
<path d="M12096 8041 c-7 -10 32 -47 40 -38 3 3 3 15 -1 26 -6 21 -29 28 -39
12z"/>
<path d="M3337 8024 c-15 -15 -7 -45 11 -42 9 2 17 12 17 22 0 20 -16 31 -28
20z"/>
<path d="M4261 7985 c-7 -25 -16 -45 -20 -45 -4 0 -18 -29 -30 -65 -15 -42
-34 -74 -54 -91 -35 -29 -94 -60 -102 -53 -13 14 25 87 72 136 38 39 51 59 44
66 -15 15 -107 -81 -132 -136 -23 -52 -24 -80 -3 -98 14 -12 25 -9 75 18 l59
32 0 -27 c0 -44 21 -66 56 -58 16 4 40 15 54 26 21 16 23 20 8 25 -9 4 -28 -1
-42 -10 -14 -9 -30 -13 -37 -10 -18 12 -5 89 21 126 25 34 81 189 73 202 -12
19 -30 3 -42 -38z"/>
<path d="M9450 8011 c0 -5 5 -22 10 -37 14 -35 36 -17 26 20 -6 24 -36 38 -36
17z"/>
<path d="M4958 7999 c-20 -11 -12 -53 9 -45 8 3 17 6 19 6 7 0 4 39 -4 44 -4
2 -15 0 -24 -5z"/>
<path d="M6457 7969 c-9 -5 -23 -22 -31 -37 -12 -23 -12 -32 -1 -59 7 -17 23
-36 34 -43 29 -15 26 -27 -11 -50 -28 -17 -34 -17 -41 -5 -4 8 -12 15 -17 15
-16 0 -11 -36 5 -50 29 -24 125 35 125 78 0 7 -14 21 -30 30 -17 9 -33 25 -36
35 -9 27 5 57 27 57 14 0 19 6 17 17 -4 21 -18 25 -41 12z"/>
<path d="M12436 7961 c-30 -20 -55 -55 -56 -78 0 -7 16 -31 36 -53 54 -60 29
-89 -48 -55 -13 5 -18 3 -18 -9 0 -36 85 -49 113 -18 25 27 21 55 -13 87 -16
16 -30 39 -30 51 0 27 45 65 67 57 11 -4 14 -1 11 13 -5 26 -28 28 -62 5z"/>
<path d="M6226 7940 c-18 -17 -44 -51 -55 -76 -36 -75 -9 -111 53 -69 l34 23
-5 -34 c-4 -26 -2 -35 11 -40 23 -9 47 13 28 25 -11 7 -9 21 12 73 14 35 26
68 26 71 0 18 -25 2 -76 -50 -35 -36 -58 -53 -61 -45 -8 22 32 86 70 111 35
23 40 41 12 41 -8 0 -30 -14 -49 -30z"/>
<path d="M11222 7925 c-17 -14 -43 -46 -59 -70 -15 -25 -33 -45 -39 -45 -14 0
-26 -28 -19 -41 3 -5 -8 -50 -25 -100 -21 -64 -28 -95 -20 -103 15 -15 26 0
59 79 27 64 33 71 71 83 92 31 153 130 119 191 -20 35 -50 37 -87 6z m64 -30
c10 -39 -25 -95 -76 -122 -24 -13 -45 -21 -48 -19 -9 9 58 135 80 150 30 22
37 20 44 -9z"/>
<path d="M11415 7934 c-46 -24 -66 -45 -86 -90 -15 -33 -17 -48 -8 -72 6 -16
18 -32 28 -35 25 -6 111 24 111 39 0 18 -14 18 -50 -1 -31 -16 -60 -11 -60 11
0 13 18 19 47 15 20 -3 70 27 87 51 21 30 20 54 -4 78 -24 24 -27 24 -65 4z
m49 -39 c6 -17 -17 -43 -51 -56 -59 -22 -70 -2 -22 42 34 32 64 37 73 14z"/>
<path d="M12185 7931 c-29 -12 -115 -107 -116 -128 -2 -30 2 -48 14 -55 19
-12 65 -9 102 6 39 17 49 42 13 32 -13 -3 -40 -9 -61 -12 -36 -6 -39 -5 -35
16 2 18 10 23 40 25 42 2 105 40 114 68 6 19 -21 57 -40 56 -6 0 -20 -4 -31
-8z m32 -45 c-5 -13 -66 -46 -84 -46 -11 0 23 34 52 51 32 20 41 18 32 -5z"/>
<path d="M8395 7920 c-4 -6 -2 -17 4 -24 8 -9 4 -21 -14 -46 -34 -46 -33 -87
2 -101 49 -18 123 29 123 79 -1 53 -93 127 -115 92z m85 -91 c0 -22 -37 -49
-67 -49 -30 0 -29 14 5 60 25 36 28 37 45 23 9 -9 17 -24 17 -34z"/>
<path d="M10690 7912 c-54 -29 -108 -126 -142 -257 -46 -174 -28 -229 28 -89
27 67 36 80 58 84 60 11 146 136 146 211 0 28 -6 42 -22 53 -28 20 -26 20 -68
-2z m60 -49 c0 -16 -9 -46 -19 -69 -36 -79 -127 -159 -100 -87 8 22 13 56 19
124 1 17 56 59 76 59 20 0 24 -5 24 -27z"/>
<path d="M8865 7911 c-3 -5 -1 -12 5 -16 6 -4 1 -19 -14 -38 -32 -42 -57 -104
-50 -122 9 -22 42 -18 104 13 69 35 89 66 70 112 -18 43 -98 78 -115 51z m81
-56 c16 -25 16 -27 -5 -49 -25 -26 -101 -60 -101 -45 0 24 65 119 81 119 5 0
16 -11 25 -25z"/>
<path d="M11617 7890 c-63 -54 -108 -170 -67 -170 5 0 23 19 40 43 16 23 34
47 40 54 14 17 13 33 -2 33 -7 0 -2 9 12 21 17 13 35 18 57 15 38 -5 49 3 25
20 -29 22 -69 16 -105 -16z"/>
<path d="M9755 7883 c-43 -46 -67 -91 -63 -120 5 -43 32 -39 111 15 l73 49 11
-93 c13 -112 10 -131 -26 -139 -42 -9 -89 -42 -111 -77 -32 -53 -23 -157 14
-171 37 -14 120 95 146 191 6 24 17 45 24 48 7 3 50 8 95 12 108 9 101 27 -10
26 l-86 0 -16 125 c-9 68 -21 129 -27 135 -7 7 -20 -1 -40 -26 -35 -43 -130
-104 -130 -85 0 17 59 97 71 97 12 0 12 27 0 35 -6 3 -22 -7 -36 -22z m96
-407 c-37 -76 -68 -108 -81 -86 -14 22 -12 77 5 109 8 16 33 37 57 49 56 26
60 12 19 -72z"/>
<path d="M11981 7831 c-18 -44 -31 -87 -29 -97 4 -23 28 -30 28 -9 0 9 14 50
30 92 34 84 35 93 17 93 -7 0 -28 -36 -46 -79z"/>
<path d="M3843 7868 c-33 -35 -53 -75 -53 -109 0 -24 52 -79 74 -79 23 0 20
27 -4 33 -23 6 -41 46 -33 76 4 16 13 21 38 21 18 0 43 8 56 19 21 16 22 22
11 45 -16 36 -51 34 -89 -6z m62 -8 c3 -5 2 -10 -4 -10 -5 0 -18 -3 -28 -7
-16 -6 -16 -5 -4 10 15 19 27 22 36 7z"/>
<path d="M5040 7868 c-26 -43 -25 -56 8 -91 l27 -30 -57 7 c-47 5 -58 3 -58
-8 0 -8 8 -17 18 -20 16 -5 91 -9 120 -7 22 2 13 39 -18 75 l-30 34 25 30 c13
16 22 32 18 36 -14 14 -34 4 -53 -26z"/>
<path d="M10841 7868 c-35 -36 -58 -104 -43 -128 16 -26 27 -16 32 32 7 61 40
98 87 98 23 0 33 5 33 15 0 11 -11 15 -39 15 -30 0 -45 -7 -70 -32z"/>
<path d="M2000 7880 c-32 -8 -36 -31 -10 -55 18 -16 23 -17 30 -5 5 8 6 18 4
22 -3 4 2 8 10 8 19 0 21 26 4 32 -7 3 -24 2 -38 -2z"/>
<path d="M9061 7827 c-17 -35 -31 -78 -31 -95 0 -29 3 -32 29 -32 15 0 44 11
63 24 34 22 35 23 47 5 16 -27 66 -24 96 5 37 37 59 136 31 136 -9 0 -17 -16
-21 -41 -9 -50 -45 -95 -70 -86 -14 6 -16 15 -11 52 9 55 -6 60 -35 10 -18
-30 -74 -75 -93 -75 -14 0 -4 33 25 85 28 50 31 75 9 75 -4 0 -22 -28 -39 -63z"/>
<path d="M9513 7858 c-38 -41 -66 -95 -59 -115 8 -20 24 -8 40 31 18 42 67 89
80 76 6 -6 5 -24 -3 -50 -18 -61 7 -88 28 -29 15 45 14 85 -5 103 -24 24 -47
19 -81 -16z"/>
<path d="M10952 7845 c-26 -53 -28 -78 -7 -95 27 -22 95 15 95 53 0 25 -38 87
-54 87 -7 0 -22 -20 -34 -45z m53 -25 c8 -26 -1 -40 -26 -40 -22 0 -23 1 -7
35 14 30 24 32 33 5z"/>
<path d="M3255 7858 c-29 -131 -31 -148 -11 -148 13 0 49 147 39 163 -9 14
-23 7 -28 -15z"/>
<path d="M3366 7849 c-48 -41 -62 -67 -46 -83 10 -8 14 -8 17 3 3 7 18 27 33
44 38 43 53 29 48 -47 -2 -49 0 -61 12 -61 12 0 15 15 15 74 0 64 -3 75 -22
88 -19 13 -24 11 -57 -18z"/>
<path d="M4860 7835 c-14 -38 -18 -119 -5 -125 15 -7 40 129 26 143 -7 7 -14
2 -21 -18z"/>
<path d="M9380 7828 c-6 -18 -17 -43 -22 -55 -10 -21 -4 -43 11 -43 8 0 40 79
44 109 4 29 -21 20 -33 -11z"/>
<path d="M12652 7763 c2 -10 13 -19 26 -21 24 -4 29 7 10 26 -18 18 -40 15
-36 -5z"/>
<path d="M3896 7701 c-4 -7 -5 -15 -2 -18 9 -9 19 4 14 18 -4 11 -6 11 -12 0z"/>
<path d="M6127 7269 c-52 -12 -83 -34 -101 -74 -15 -31 -15 -37 0 -73 9 -24
36 -58 65 -82 97 -82 120 -149 68 -196 -25 -22 -86 -24 -123 -5 -32 18 -44 51
-22 63 16 9 23 38 8 38 -4 0 -18 -7 -30 -16 -61 -43 14 -134 112 -134 45 0
103 48 111 93 9 49 -8 81 -90 167 -58 61 -75 85 -75 108 0 31 30 65 68 77 22
6 23 5 16 -42 -8 -64 10 -83 50 -52 30 23 36 78 11 99 -8 7 -15 19 -15 26 0
16 0 16 -53 3z m49 -85 c-4 -14 -9 -24 -12 -21 -3 2 -2 17 2 31 3 15 9 25 11
22 3 -3 2 -17 -1 -32z"/>
<path d="M10046 7242 c-2 -4 -8 -47 -12 -95 l-7 -86 -65 -3 c-41 -2 -67 -8
-70 -15 -3 -10 15 -13 68 -13 51 0 70 -4 69 -12 -1 -7 -1 -68 0 -135 1 -102 4
-123 16 -123 13 0 15 21 15 131 l0 131 33 -5 c33 -5 67 7 67 23 0 6 -23 10
-51 10 l-52 0 7 94 c4 59 3 96 -3 100 -5 4 -12 3 -15 -2z"/>
<path d="M13291 7203 c-5 -21 -13 -58 -18 -83 -8 -40 -12 -45 -38 -48 -17 -2
-36 -8 -42 -14 -20 -16 -3 -31 28 -24 35 7 36 0 13 -128 -10 -60 -12 -92 -5
-99 14 -14 27 23 42 124 15 105 22 119 60 119 33 0 69 15 69 30 0 5 -22 6 -50
3 -58 -7 -59 -4 -35 87 18 68 18 70 0 70 -8 0 -18 -16 -24 -37z"/>
<path d="M13792 7103 c-23 -49 -59 -106 -80 -129 -40 -42 -104 -94 -115 -94
-30 0 37 101 83 125 30 16 33 35 4 35 -24 0 -96 -73 -116 -118 -21 -47 -16
-82 10 -82 21 0 86 42 132 86 l35 33 -3 -74 c-4 -84 8 -100 53 -71 28 18 34
46 10 46 -8 0 -15 -4 -15 -10 0 -5 -4 -10 -10 -10 -29 0 1 162 46 252 36 72
42 98 21 98 -7 0 -32 -39 -55 -87z"/>
<path d="M8956 7159 c-9 -28 -35 -253 -30 -261 3 -4 13 -45 22 -90 10 -46 22
-82 27 -80 13 4 8 83 -8 146 -11 41 -10 69 2 163 11 85 12 116 3 125 -8 8 -12
8 -16 -3z"/>
<path d="M7580 7126 c0 -7 7 -19 15 -26 8 -7 15 -19 15 -26 0 -17 17 -18 23
-1 6 18 -21 67 -38 67 -8 0 -15 -6 -15 -14z"/>
<path d="M7369 7047 c-25 -17 -35 -31 -37 -55 -3 -27 5 -41 47 -85 65 -69 66
-81 5 -72 -26 3 -53 9 -61 12 -11 4 -14 0 -11 -13 4 -21 34 -32 95 -33 32 -1
45 4 53 18 14 28 16 25 -45 91 -54 59 -62 74 -47 96 10 16 53 37 76 38 11 1
21 7 24 14 7 21 -62 14 -99 -11z"/>
<path d="M7244 7050 c-28 -11 -54 -48 -54 -77 0 -13 16 -41 36 -63 30 -33 33
-41 20 -46 -24 -9 -46 3 -46 26 0 11 -7 20 -15 20 -21 0 -19 -43 3 -63 26 -24
79 -22 92 2 15 30 13 38 -26 81 -32 35 -35 44 -26 64 6 14 22 26 42 29 19 4
30 12 28 19 -6 16 -27 19 -54 8z"/>
<path d="M10230 7030 c-26 -26 -19 -37 35 -61 23 -10 48 -26 55 -34 15 -18 6
-61 -16 -69 -19 -7 -69 18 -77 39 -10 23 -29 18 -25 -7 3 -25 61 -68 90 -68
29 0 68 45 68 79 0 21 -10 38 -35 60 -20 17 -42 31 -50 31 -8 0 -15 5 -15 11
0 7 9 9 24 5 28 -7 40 2 25 21 -17 19 -56 16 -79 -7z"/>
<path d="M12004 7031 c-34 -21 -74 -93 -74 -134 0 -41 20 -75 52 -88 33 -14
78 -3 86 20 3 10 -4 12 -36 6 -36 -6 -42 -4 -57 18 -23 36 -10 94 31 135 17
17 41 32 53 32 12 0 21 6 21 15 0 21 -38 19 -76 -4z"/>
<path d="M12541 7027 c-11 -28 -53 -184 -53 -194 1 -26 24 -5 57 51 21 36 51
77 66 92 29 27 29 27 29 5 0 -12 -11 -56 -25 -97 -30 -90 -30 -94 -6 -94 12 0
19 7 19 18 -1 9 9 47 21 84 42 126 13 173 -61 102 l-39 -39 16 44 c18 53 18
51 0 51 -9 0 -19 -10 -24 -23z"/>
<path d="M6976 7010 c-37 -45 -36 -101 3 -141 35 -35 81 -40 81 -9 0 39 2 38
-38 25 -26 -8 -42 19 -22 38 10 9 11 9 6 0 -13 -23 13 -14 46 16 l32 28 -20
34 c-27 45 -55 48 -88 9z m64 -36 c0 -13 -30 -34 -49 -34 -16 0 -13 22 5 48
13 18 19 21 30 11 8 -6 14 -17 14 -25z"/>
<path d="M7955 7024 c-22 -7 -63 -13 -92 -13 l-52 -1 -19 -52 c-11 -29 -23
-68 -27 -86 -9 -41 -19 -34 -39 26 -22 63 -51 101 -67 85 -9 -9 -7 -18 8 -40
11 -15 25 -44 32 -63 16 -48 39 -80 56 -80 17 0 35 37 59 123 l17 57 40 0 c48
0 127 19 135 32 12 19 -12 25 -51 12z"/>
<path d="M11228 7023 c-29 -34 -38 -62 -38 -123 0 -82 23 -77 31 6 8 82 23
107 59 99 34 -7 49 10 21 24 -29 16 -56 13 -73 -6z"/>
<path d="M5577 7023 c-26 -4 -28 -8 -25 -41 4 -48 29 -53 69 -12 25 25 29 33
19 45 -7 8 -18 14 -24 14 -6 -1 -24 -4 -39 -6z"/>
<path d="M6621 7004 c-64 -53 -55 -163 14 -176 25 -5 85 18 85 33 0 15 -21 21
-35 9 -8 -6 -26 -10 -42 -8 -25 3 -28 8 -31 41 -4 44 19 87 47 87 25 0 33 11
20 27 -16 18 -23 17 -58 -13z"/>
<path d="M6811 6999 c-26 -33 -51 -106 -43 -129 10 -31 36 -50 68 -50 18 0 35
6 37 13 4 9 6 8 6 -2 1 -11 4 -11 16 -1 24 20 9 28 -40 23 -35 -4 -46 -2 -51
11 -12 32 7 90 41 122 19 17 31 34 28 38 -14 14 -39 3 -62 -25z"/>
<path d="M8733 7018 c-32 -15 -56 -72 -48 -111 16 -73 61 -126 110 -129 33 -3
75 12 75 25 0 9 -16 13 -52 12 -48 0 -54 3 -75 34 -13 19 -23 38 -23 42 0 5
17 13 38 19 74 19 90 75 31 105 -15 8 -29 15 -31 14 -2 0 -13 -5 -25 -11z m54
-44 c3 -9 0 -20 -8 -25 -21 -13 -59 -11 -59 4 0 34 55 51 67 21z"/>
<path d="M9575 6984 c-46 -47 -52 -65 -36 -107 18 -48 114 -54 162 -11 27 25
8 40 -24 19 -32 -21 -101 -17 -105 6 -2 12 7 18 39 22 70 9 110 65 73 101 -28
28 -62 19 -109 -30z m91 5 c9 -16 -16 -38 -54 -45 -27 -6 -31 -4 -26 10 6 15
49 45 66 46 4 0 10 -5 14 -11z"/>
<path d="M11412 7017 c-64 -36 -78 -137 -23 -167 32 -17 86 1 85 28 0 11 3 19
7 16 4 -2 10 0 13 5 4 5 2 12 -4 16 -15 9 -50 -4 -50 -20 0 -17 -23 -25 -41
-14 -12 8 -11 12 6 25 11 8 32 24 48 36 32 25 36 63 8 78 -24 12 -21 12 -49
-3z m14 -55 c-14 -14 -29 -23 -32 -19 -10 10 37 58 48 50 6 -3 -2 -17 -16 -31z"/>
<path d="M12381 6993 c-17 -21 -31 -42 -32 -48 -1 -5 -4 0 -7 13 -11 39 -25
26 -38 -35 -7 -32 -14 -64 -16 -72 -1 -7 2 -15 9 -18 6 -2 35 32 64 77 28 44
53 80 54 78 2 -2 -1 -28 -6 -58 -20 -113 -19 -130 6 -130 8 0 14 11 13 28 0
15 5 56 11 92 6 36 11 75 11 88 0 35 -34 27 -69 -15z"/>
<path d="M12796 6999 c-19 -16 -38 -39 -41 -50 -4 -12 -15 -19 -31 -19 -19 0
-25 -5 -22 -17 2 -10 10 -18 18 -18 8 0 23 -12 32 -27 10 -16 23 -28 30 -29 7
0 24 -3 38 -5 36 -7 70 4 70 22 0 12 -7 14 -35 8 -25 -4 -43 -1 -61 11 l-27
17 57 31 c65 35 82 57 66 87 -16 29 -54 25 -94 -11z m62 -11 c-3 -7 -19 -21
-38 -32 l-32 -19 11 21 c17 32 68 58 59 30z"/>
<path d="M13390 7003 c-53 -68 -66 -152 -27 -178 20 -13 30 -13 68 -2 28 8 45
19 47 31 3 16 0 18 -19 11 -13 -4 -39 -9 -56 -12 -28 -4 -33 -2 -33 15 0 11 6
19 13 18 18 -1 87 81 87 103 0 45 -49 54 -80 14z m29 -40 c-13 -16 -27 -32
-32 -38 -4 -5 -5 -1 -1 10 9 26 34 55 47 55 6 0 0 -12 -14 -27z"/>
<path d="M6370 7001 c-23 -43 -4 -143 30 -161 40 -21 112 78 95 130 -12 36
-35 24 -35 -19 0 -46 -32 -93 -50 -74 -7 6 -15 32 -17 57 -5 42 -4 44 16 39
11 -3 21 -2 21 1 0 17 -22 46 -35 46 -8 0 -19 -9 -25 -19z"/>
<path d="M8104 6990 c-71 -31 -107 -95 -84 -151 25 -60 83 -65 185 -16 74 36
101 59 90 77 -5 8 -14 6 -29 -7 -29 -26 -138 -73 -169 -73 -26 0 -57 32 -57
57 0 7 12 13 26 13 36 0 93 29 110 56 12 17 13 27 4 43 -13 25 -22 25 -76 1z
m41 -32 c-7 -17 -47 -38 -71 -38 -23 0 -7 18 34 39 41 21 45 21 37 -1z"/>
<path d="M11045 7000 c-22 -8 -57 -46 -74 -78 -14 -26 -14 -79 -1 -87 17 -10
79 15 116 47 l34 30 0 -51 c0 -37 4 -51 14 -51 10 0 15 16 18 51 3 55 -15 115
-32 104 -5 -3 -10 -2 -10 4 0 11 -28 41 -38 40 -4 0 -16 -4 -27 -9z m39 -46
c4 -9 -3 -31 -14 -48 -11 -17 -20 -28 -20 -23 0 4 -13 1 -30 -8 -28 -15 -30
-15 -30 4 0 23 56 91 75 91 7 0 16 -7 19 -16z"/>
<path d="M12174 6975 c-42 -44 -61 -103 -45 -134 25 -45 117 -12 136 49 9 28
-25 120 -43 120 -8 0 -30 -16 -48 -35z m46 -8 c0 -1 4 -17 9 -34 8 -26 6 -37
-11 -58 -19 -24 -68 -36 -68 -15 0 25 47 110 61 110 5 0 9 -1 9 -3z"/>
<path d="M13034 7000 c-25 -10 -58 -53 -79 -103 -12 -29 -12 -37 -1 -53 12
-16 18 -17 72 -5 74 16 124 39 124 57 0 8 -5 14 -11 14 -5 0 -7 -5 -3 -12 4
-6 3 -8 -2 -5 -5 3 -41 -3 -79 -14 -38 -10 -71 -17 -73 -14 -11 10 23 68 57
95 37 31 34 55 -5 40z"/>
<path d="M9078 6973 c-56 -59 -64 -135 -19 -185 35 -40 89 -44 123 -10 25 25
16 42 -12 24 -53 -33 -110 0 -110 63 1 25 2 27 11 13 9 -17 12 -17 47 1 51 27
67 54 50 89 -19 38 -56 40 -90 5z m59 -20 c7 -17 -29 -53 -53 -53 -19 0 -17
13 7 44 24 30 37 33 46 9z"/>
<path d="M9794 6977 c-26 -23 -67 -123 -57 -139 8 -14 33 -8 33 7 0 21 48 115
59 115 12 0 21 -37 21 -90 0 -50 14 -81 28 -65 15 17 -3 153 -23 175 -23 25
-28 25 -61 -3z"/>
<path d="M9400 6948 c-16 -22 -30 -46 -30 -52 0 -6 -8 3 -18 19 -27 43 -44 54
-77 52 -28 -2 -30 -5 -36 -57 -6 -59 3 -90 26 -90 11 0 15 13 15 48 0 63 13
83 33 51 9 -13 19 -36 22 -51 14 -54 31 -53 58 4 14 29 32 62 41 73 14 19 15
14 16 -67 0 -71 3 -88 15 -88 12 0 15 16 15 84 0 46 -3 91 -6 100 -11 28 -43
17 -74 -26z"/>
<path d="M7563 6972 c-17 -11 -4 -162 14 -162 11 0 13 17 12 81 -3 81 -6 93
-26 81z"/>
<path d="M4430 6770 c0 -22 0 -42 -1 -45 0 -2 -7 -30 -14 -62 -7 -32 -11 -61
-9 -65 7 -12 -20 -20 -68 -22 -24 0 -42 -5 -40 -11 3 -13 53 -26 74 -19 16 5
16 1 -2 -41 -24 -55 -30 -106 -14 -112 7 -2 16 17 23 44 20 83 38 111 74 118
55 11 67 16 67 27 0 6 -18 9 -45 6 -49 -3 -50 -1 -35 51 5 18 12 65 16 102 5
60 4 69 -10 69 -12 0 -16 -10 -16 -40z"/>
<path d="M2705 6728 c9 -42 5 -149 -5 -143 -3 2 -18 -42 -33 -97 -31 -114 -28
-128 31 -128 29 0 43 8 79 46 36 37 42 48 32 60 -10 12 -15 9 -34 -17 -29 -38
-55 -58 -77 -59 -27 0 -22 31 13 73 30 36 70 49 84 27 8 -13 35 -13 35 0 0 15
-42 50 -61 50 -9 0 -28 -9 -42 -20 l-26 -21 15 48 c31 100 30 213 -3 213 -12
0 -14 -7 -8 -32z"/>
<path d="M4070 6699 c0 -24 23 -21 28 4 2 10 -3 17 -12 17 -10 0 -16 -9 -16
-21z"/>
<path d="M4870 6605 c0 -9 -6 -18 -14 -21 -8 -3 -35 -32 -61 -65 -26 -33 -51
-57 -55 -54 -5 3 -23 -1 -40 -10 -37 -19 -131 -25 -137 -9 -2 7 20 25 49 42
64 36 81 54 76 83 -13 89 -158 -5 -158 -103 0 -54 22 -71 85 -66 29 2 71 14
93 25 l42 20 -6 -38 c-5 -32 -4 -39 10 -39 9 0 18 11 22 28 16 76 86 172 125
172 22 0 23 4 9 31 -13 23 -40 25 -40 4z m-215 -54 c-9 -16 -85 -53 -85 -42 0
18 72 73 82 63 6 -6 7 -15 3 -21z"/>
<path d="M3669 6551 c-22 -21 -45 -41 -52 -44 -6 -2 -18 -26 -25 -53 -8 -27
-27 -93 -43 -147 -28 -92 -30 -125 -8 -111 18 11 49 83 42 100 -4 12 -3 15 5
10 8 -5 14 7 18 33 5 32 14 45 39 60 40 23 115 116 115 141 0 61 -37 66 -91
11z m57 -18 c-7 -22 -96 -116 -103 -109 -8 8 56 104 80 121 24 17 31 14 23
-12z"/>
<path d="M5018 6559 c-33 -25 -36 -56 -7 -93 30 -38 22 -70 -18 -74 -28 -3
-34 1 -48 32 -17 35 -45 49 -45 22 0 -24 45 -80 70 -86 28 -7 71 5 82 23 14
22 8 72 -12 97 -11 14 -20 30 -20 36 0 10 26 26 63 38 10 3 15 10 12 16 -10
16 -48 11 -77 -11z"/>
<path d="M3839 6563 c-1 -4 -1 -12 0 -17 1 -5 -7 -18 -17 -30 -58 -64 -56
-136 5 -136 41 0 102 75 93 115 -1 6 -3 24 -4 40 -1 27 -5 30 -39 33 -20 2
-38 0 -38 -5z m51 -76 c0 -23 -46 -77 -67 -77 -28 0 0 79 34 99 22 12 33 5 33
-22z"/>
<path d="M4003 6528 c-17 -22 -43 -97 -43 -123 0 -16 6 -25 15 -25 8 0 15 9
15 20 0 11 9 43 20 72 11 29 20 56 20 61 0 11 -17 8 -27 -5z"/>
<path d="M2961 6469 c-44 -49 -56 -57 -68 -47 -10 8 -13 22 -8 46 5 29 4 33
-12 30 -20 -4 -28 -37 -19 -74 9 -33 46 -50 75 -34 22 11 22 11 6 -20 -9 -17
-36 -62 -61 -101 -25 -38 -44 -77 -42 -87 4 -22 33 -22 33 0 0 9 21 49 46 90
63 100 138 245 131 252 -13 13 -30 2 -81 -55z"/>
<path d="M4108 6492 c-38 -28 -63 -67 -52 -83 3 -5 26 11 50 36 25 25 54 45
65 45 16 0 18 -5 12 -45 -5 -37 -3 -45 10 -45 11 0 17 15 22 50 4 27 4 54 0
60 -12 19 -69 10 -107 -18z"/>
<path d="M11410 6362 c0 -10 -22 -67 -48 -127 l-49 -110 -51 -3 c-37 -2 -52
-7 -52 -18 0 -10 12 -14 45 -14 25 0 45 -2 45 -5 0 -2 -9 -26 -19 -52 -25 -65
-30 -98 -12 -98 8 0 22 28 35 70 20 64 24 70 51 73 17 2 37 6 45 9 8 3 21 7
29 9 21 4 34 21 27 33 -5 8 -16 6 -37 -5 -17 -8 -40 -14 -53 -12 -22 3 -22 5
25 113 51 116 59 155 34 155 -8 0 -15 -8 -15 -18z"/>
<path d="M13628 6252 c-86 -175 -148 -330 -148 -371 0 -37 14 -61 36 -61 14 0
25 38 13 46 -21 12 -6 77 45 196 30 70 73 161 95 201 42 76 50 107 29 106 -7
0 -39 -53 -70 -117z"/>
<path d="M5282 6346 c1 -10 8 -17 13 -17 15 1 12 24 -3 29 -9 3 -13 -2 -10
-12z"/>
<path d="M7266 6278 c-11 -46 -41 -149 -68 -231 -26 -81 -48 -150 -48 -153 0
-3 7 -4 16 -2 17 3 75 168 114 323 12 44 26 90 31 102 6 11 8 26 5 32 -17 27
-33 6 -50 -71z"/>
<path d="M9839 6333 c-1 -16 -1 -31 0 -35 0 -5 -3 -8 -7 -8 -5 0 -14 -29 -21
-65 -7 -36 -17 -68 -22 -70 -4 -3 -29 -8 -56 -10 -26 -3 -51 -9 -57 -15 -12
-12 37 -24 74 -16 17 3 30 1 30 -4 0 -5 -13 -43 -30 -85 -16 -42 -30 -83 -30
-93 0 -10 -3 -13 -8 -7 -9 13 -32 17 -32 6 0 -5 -2 -16 -5 -23 -6 -14 42 -44
52 -34 5 4 69 181 82 225 6 22 18 27 91 43 81 18 100 28 100 56 0 15 -27 16
-32 1 -4 -11 -127 -43 -135 -35 -3 2 5 42 16 87 25 99 26 109 6 109 -9 0 -15
-10 -16 -27z"/>
<path d="M12277 6354 c-4 -4 -7 -17 -7 -29 0 -12 -27 -76 -59 -143 l-60 -120
-40 5 c-34 5 -41 3 -41 -11 0 -10 9 -16 24 -16 37 0 39 -14 11 -69 -28 -55
-32 -81 -12 -81 6 1 27 33 45 73 l33 72 54 1 54 0 -20 -32 c-13 -22 -18 -41
-13 -58 9 -38 45 -34 89 11 30 31 36 44 34 73 -2 20 0 41 5 48 9 15 -29 56
-44 47 -6 -4 -9 -13 -6 -21 3 -9 -3 -18 -17 -23 -26 -9 -117 -22 -117 -17 0 3
25 55 55 118 54 112 70 168 49 175 -5 2 -13 0 -17 -3z m63 -324 c0 -22 -55
-89 -65 -78 -8 8 43 98 56 98 5 0 9 -9 9 -20z"/>
<path d="M13517 6313 c-46 -63 -152 -308 -173 -398 -4 -16 -11 -33 -17 -36
-14 -10 1 -29 22 -29 14 0 20 10 24 43 11 78 121 341 168 399 30 39 35 53 20
62 -5 4 -25 -15 -44 -41z"/>
<path d="M7822 6313 c-5 -10 -23 -63 -41 -119 l-31 -101 -61 -6 c-67 -6 -74
-9 -65 -32 4 -12 10 -14 25 -5 11 5 34 10 52 10 35 0 35 4 -1 -94 -21 -59 -23
-101 -5 -101 5 0 12 14 15 30 14 66 62 175 77 175 9 0 33 5 54 11 35 11 38 15
37 46 -1 25 -5 33 -17 31 -9 -2 -17 -13 -19 -26 -2 -12 -6 -22 -10 -22 -4 0
-17 -3 -29 -6 -22 -6 -22 -5 11 92 19 55 37 107 41 117 5 12 2 17 -9 17 -8 0
-19 -8 -24 -17z"/>
<path d="M6375 6290 c-3 -5 -3 -20 0 -33 7 -28 -14 -119 -55 -235 -17 -46 -30
-90 -30 -98 0 -23 27 -16 34 9 3 13 32 53 65 88 l59 64 -5 -62 c-6 -60 -5 -62
21 -69 14 -3 26 -12 26 -19 0 -7 7 -18 15 -25 13 -11 27 -10 78 4 34 10 67 22
74 28 19 15 16 31 -4 25 -103 -32 -124 -36 -130 -20 -4 9 2 22 15 32 26 19 44
72 31 92 -12 20 -39 1 -64 -44 -11 -20 -23 -37 -28 -37 -4 0 -6 26 -5 58 3 52
1 57 -19 60 -12 2 -35 -9 -55 -27 l-35 -30 24 81 c27 93 31 168 9 168 -8 0
-17 -4 -21 -10z"/>
<path d="M8646 6273 c-3 -10 -8 -49 -11 -88 -8 -79 -27 -176 -49 -250 -19 -62
-20 -75 -2 -75 35 0 112 416 79 427 -6 2 -14 -4 -17 -14z"/>
<path d="M11007 6273 c-4 -3 -7 -22 -7 -40 0 -42 23 -41 28 1 4 29 -9 52 -21
39z"/>
<path d="M5885 6241 c-16 -3 -28 -11 -25 -16 3 -6 49 -9 118 -6 l112 3 0 -60
c0 -33 -12 -104 -26 -158 -31 -114 -33 -135 -18 -141 23 -8 95 320 77 350 -2
4 42 6 99 5 112 -3 151 13 58 24 -70 8 -356 8 -395 -1z"/>
<path d="M10554 6142 c-63 -46 -104 -135 -168 -360 -25 -89 -26 -112 -6 -112
20 0 100 195 100 244 0 16 3 17 12 8 22 -22 72 -14 100 16 109 116 77 287 -38
204z m73 -70 c-6 -58 -53 -126 -90 -130 l-27 -3 4 61 c2 34 9 67 15 73 6 6 11
19 11 30 0 10 4 15 10 12 5 -3 20 1 32 9 33 24 51 3 45 -52z"/>
<path d="M12965 6119 l-54 -51 10 37 c8 27 7 41 -1 49 -13 13 -30 -8 -30 -36
0 -10 -16 -50 -35 -89 -32 -67 -36 -89 -15 -89 4 0 40 39 80 86 40 47 74 84
75 82 2 -2 -8 -36 -22 -75 -26 -75 -26 -116 2 -127 21 -8 45 3 45 20 0 8 -9
14 -20 14 -26 0 -26 3 15 116 19 53 35 100 35 105 0 22 -36 5 -85 -42z"/>
<path d="M8777 6110 c-38 -45 -77 -136 -77 -181 0 -19 8 -34 25 -45 23 -15 27
-15 62 3 21 10 36 23 33 28 -3 6 -9 8 -15 7 -5 -2 -25 -6 -42 -9 -28 -5 -33
-3 -33 14 0 35 21 83 37 83 25 0 80 38 86 59 5 21 -18 81 -32 81 -5 0 -25 -18
-44 -40z m24 -53 c-30 -31 -37 -13 -10 25 20 27 24 30 27 14 2 -10 -5 -28 -17
-39z"/>
<path d="M10790 6105 c0 -8 -5 -15 -11 -15 -19 0 -99 -70 -120 -104 -27 -44
-25 -84 5 -98 21 -9 32 -6 70 16 26 15 54 38 62 52 33 49 38 164 8 164 -8 0
-14 -7 -14 -15z m-18 -124 c-10 -14 -34 -36 -52 -49 -76 -52 -55 42 22 99 l43
31 3 -28 c2 -16 -4 -38 -16 -53z"/>
<path d="M11514 6095 c-4 -9 -4 -42 -1 -74 6 -53 4 -60 -18 -81 l-24 -23 -12
27 c-17 36 -44 35 -34 -1 15 -62 46 -69 92 -20 30 31 31 35 28 107 -3 71 -17
102 -31 65z"/>
<path d="M5627 6082 c-21 -23 -22 -61 -1 -69 8 -3 27 -1 40 6 21 9 25 17 22
44 -4 38 -35 48 -61 19z"/>
<path d="M8339 6076 c-31 -21 -51 -51 -61 -91 -1 -5 1 -24 4 -41 11 -51 105
-82 159 -54 34 19 22 32 -25 25 -61 -10 -106 14 -106 56 0 56 92 126 116 88 9
-15 -10 -25 -57 -33 -26 -4 -39 -11 -39 -22 0 -13 8 -15 43 -9 89 15 121 51
76 86 -33 25 -68 23 -110 -5z"/>
<path d="M8951 6046 c-6 -29 -18 -62 -26 -72 -8 -11 -15 -27 -15 -36 0 -38 20
-24 55 37 21 36 40 64 42 62 1 -2 -3 -27 -11 -56 -12 -45 -11 -53 1 -58 7 -3
15 -4 16 -2 38 58 63 91 82 109 l25 23 0 -27 c0 -34 -20 -117 -32 -132 -5 -7
-3 -16 6 -23 11 -9 16 -9 21 -1 15 24 35 117 35 163 0 65 -20 71 -71 21 l-41
-39 7 37 c6 30 4 39 -9 44 -9 3 -23 1 -31 -6 -10 -9 -15 -9 -15 -1 0 6 -6 11
-13 11 -8 0 -19 -21 -26 -54z"/>
<path d="M11028 6073 c-26 -30 -88 -136 -88 -153 0 -30 30 -2 65 62 22 39 46
73 54 76 13 4 13 -8 -3 -113 0 -5 6 -10 14 -10 23 0 38 107 20 140 -17 32 -30
31 -62 -2z"/>
<path d="M13284 6083 c-17 -54 -40 -95 -69 -123 -62 -60 -97 -16 -51 65 22 41
21 65 -4 50 -19 -11 -50 -84 -50 -115 0 -31 30 -70 53 -70 31 0 94 59 125 117
18 34 32 68 32 77 0 22 -29 20 -36 -1z"/>
<path d="M7311 6054 c-18 -20 -30 -43 -27 -51 3 -8 2 -12 -3 -9 -10 7 -21 -17
-21 -44 0 -30 23 -41 52 -26 29 15 40 12 32 -9 -3 -7 0 -16 6 -20 15 -9 42 15
35 33 -3 8 6 35 21 59 43 73 23 83 -40 19 -58 -60 -82 -71 -71 -33 11 34 54
87 71 87 9 0 14 6 12 13 -9 24 -36 17 -67 -19z"/>
<path d="M9503 6071 c-22 -14 -33 -16 -36 -8 -6 18 -34 -8 -42 -40 -3 -15 -17
-40 -31 -56 -27 -32 -29 -42 -12 -53 7 -4 18 2 27 17 47 72 141 149 141 116 0
-8 -9 -40 -20 -72 -23 -67 -26 -99 -8 -93 20 7 70 179 57 195 -16 18 -39 16
-76 -6z"/>
<path d="M7486 6047 c-30 -39 -32 -55 -11 -83 20 -26 19 -32 -7 -36 -31 -4
-29 -22 3 -26 14 -2 36 6 50 17 l24 19 -27 29 c-24 26 -25 30 -13 54 8 15 21
29 30 33 22 8 19 26 -4 26 -11 0 -31 -15 -45 -33z"/>
<path d="M9289 6062 c-88 -60 -105 -155 -33 -182 30 -12 78 4 71 24 -3 7 -1
18 5 24 8 8 7 13 -5 18 -19 7 -50 -13 -41 -27 3 -5 -4 -9 -15 -9 -22 0 -35 28
-25 54 3 9 17 16 30 16 13 0 38 13 55 28 24 22 30 33 25 50 -9 26 -32 28 -67
4z m36 -22 c-3 -5 -16 -15 -28 -21 -21 -10 -21 -9 2 10 25 23 36 27 26 11z"/>
<path d="M10900 6048 c-5 -13 -18 -45 -29 -72 -23 -54 -26 -76 -10 -76 5 0 21
26 35 58 14 31 30 65 35 75 10 19 4 37 -12 37 -5 0 -14 -10 -19 -22z"/>
<path d="M14429 5503 c-6 -16 -19 -79 -30 -142 -24 -150 -24 -148 -58 -145
-44 3 -81 -7 -81 -22 0 -8 9 -14 20 -14 11 0 20 3 20 8 0 4 15 7 34 7 l33 0
-20 -70 c-30 -107 -31 -115 -14 -115 9 0 20 22 31 63 34 125 35 127 64 127 34
0 57 14 47 29 -4 8 -18 10 -36 6 -16 -4 -29 -5 -29 -3 0 22 41 240 49 259 5
15 7 30 4 33 -13 12 -24 5 -34 -21z"/>
<path d="M3129 5457 c-7 -15 -20 -27 -29 -27 -23 0 -145 -144 -177 -210 -18
-37 -28 -76 -31 -121 -4 -58 -1 -69 19 -93 32 -36 87 -43 181 -22 81 18 138
47 138 71 0 19 -9 19 -29 1 -25 -21 -110 -46 -177 -53 -79 -7 -104 13 -104 82
0 83 43 166 138 265 l44 45 -7 -36 c-5 -25 -2 -39 9 -48 22 -18 50 28 43 71
-2 18 0 43 6 56 7 16 7 26 -1 34 -8 8 -14 4 -23 -15z"/>
<path d="M7151 5381 c-12 -38 -21 -77 -21 -88 0 -10 -11 -64 -25 -121 -14 -57
-25 -112 -25 -123 0 -36 25 -19 70 47 24 36 52 70 61 75 16 8 16 5 2 -47 -16
-63 -14 -115 5 -122 8 -2 12 7 12 28 0 18 7 59 16 92 8 33 13 67 10 74 -10 27
-49 14 -89 -28 -35 -36 -40 -39 -34 -18 4 14 14 64 22 112 8 47 22 105 30 128
19 53 19 60 1 60 -9 0 -22 -26 -35 -69z"/>
<path d="M11367 5443 c-4 -3 -7 -33 -7 -65 0 -33 -7 -90 -16 -128 l-15 -69
-44 6 c-41 5 -47 3 -79 -29 -66 -66 -69 -178 -4 -178 61 0 145 129 172 265 23
111 28 205 12 205 -7 0 -16 -3 -19 -7z m-69 -292 c11 -7 10 -16 -6 -47 -25
-49 -66 -94 -87 -94 -11 0 -15 10 -15 35 0 78 60 137 108 106z"/>
<path d="M7977 5333 c-62 -251 -84 -402 -61 -410 7 -2 15 23 22 67 13 89 24
105 61 86 40 -21 81 -69 96 -112 15 -44 42 -54 36 -14 -5 41 -28 75 -80 122
l-50 46 58 50 c32 28 82 74 112 102 30 29 64 59 77 67 23 16 29 38 13 48 -5 3
-36 -20 -68 -51 -138 -134 -236 -218 -230 -199 4 11 15 61 26 112 11 51 25
102 31 113 12 22 6 40 -14 40 -7 0 -19 -29 -29 -67z"/>
<path d="M11952 5344 c4 -21 22 -23 26 -1 2 10 -3 17 -13 17 -10 0 -15 -6 -13
-16z"/>
<path d="M7627 5321 c-6 -24 7 -46 22 -37 16 10 14 56 -3 56 -7 0 -16 -9 -19
-19z"/>
<path d="M14640 5325 c0 -9 5 -15 11 -13 6 2 11 8 11 13 0 5 -5 11 -11 13 -6
2 -11 -4 -11 -13z"/>
<path d="M8880 5305 c0 -8 7 -15 15 -15 8 0 15 7 15 15 0 8 -7 15 -15 15 -8 0
-15 -7 -15 -15z"/>
<path d="M5230 5286 c0 -7 16 -26 35 -40 43 -33 45 -63 8 -123 -44 -68 -73
-69 -100 -2 -8 21 -18 39 -22 39 -4 0 -24 -20 -44 -45 -56 -66 -76 -57 -38 18
21 42 12 58 -18 28 -24 -24 -37 -96 -21 -116 10 -12 16 -12 39 -1 14 8 38 25
54 40 15 14 27 19 27 12 0 -24 40 -56 70 -56 24 0 37 9 65 48 64 86 63 143 -3
187 -42 29 -52 31 -52 11z"/>
<path d="M9840 5287 c0 -14 31 -47 43 -47 12 0 8 35 -5 48 -16 16 -38 15 -38
-1z"/>
<path d="M12965 5264 c-23 -24 -68 -96 -71 -114 -1 -8 -5 -36 -9 -62 -7 -42
-5 -49 20 -73 23 -24 33 -27 69 -23 24 3 59 13 77 22 19 10 52 19 74 21 39 4
41 3 70 -45 16 -28 35 -50 42 -50 20 0 16 18 -17 65 -16 24 -30 47 -30 52 0 4
20 21 44 36 24 15 50 35 57 43 18 22 20 44 3 44 -8 0 -14 -4 -14 -10 0 -5 -24
-25 -52 -45 l-53 -35 -10 30 c-6 17 -16 35 -24 39 -11 7 -11 9 0 14 11 4 11 6
1 6 -21 1 -24 -22 -8 -66 13 -36 13 -42 0 -47 -8 -3 -14 -1 -14 4 0 16 -18 12
-58 -14 -68 -44 -135 -46 -146 -3 -7 29 11 97 26 97 6 0 26 12 45 26 29 22 34
31 31 62 -3 42 -26 53 -53 26z m6 -57 c-13 -12 -20 -15 -16 -7 14 26 28 41 33
35 3 -3 -5 -16 -17 -28z"/>
<path d="M6935 5246 c-19 -29 -17 -81 5 -158 11 -38 11 -49 1 -62 -19 -22 -68
-20 -88 4 -23 27 -33 25 -33 -5 0 -43 73 -59 130 -30 35 18 38 45 15 121 -30
100 -19 126 54 126 73 -1 62 22 -12 26 -50 3 -58 0 -72 -22z"/>
<path d="M4402 5227 c-53 -56 -68 -146 -28 -172 26 -17 49 -11 88 22 15 13 17
10 23 -41 4 -31 5 -62 2 -69 -3 -8 -25 -17 -49 -20 -32 -4 -51 -14 -72 -38
-27 -30 -28 -36 -24 -101 6 -84 30 -123 74 -123 25 0 33 7 53 48 13 26 29 80
35 118 l11 71 42 -6 c24 -3 43 -2 43 2 0 16 -25 32 -51 32 -26 0 -26 0 -33 98
-5 63 -3 108 4 126 6 16 8 37 5 47 -7 21 -35 26 -35 7 0 -6 -7 -4 -18 5 -25
23 -45 21 -70 -6z m67 -39 c13 -23 12 -29 -8 -62 -21 -33 -64 -57 -78 -43 -9
10 6 70 27 105 23 37 38 37 59 0z m11 -290 c0 -13 -6 -49 -14 -80 -25 -107
-65 -135 -86 -60 -28 101 0 159 78 161 16 1 22 -5 22 -21z"/>
<path d="M6110 5228 c-11 -13 -30 -53 -41 -90 -12 -38 -25 -71 -30 -74 -18
-11 -10 -44 11 -44 14 0 22 10 30 40 5 22 14 57 20 78 5 21 17 46 25 57 15 20
16 20 31 -2 20 -28 34 -30 34 -5 0 17 -38 62 -53 62 -3 0 -16 -10 -27 -22z"/>
<path d="M7422 5214 c-20 -21 -41 -37 -46 -36 -13 4 -26 -19 -26 -48 0 -13 -7
-44 -16 -67 -9 -24 -14 -46 -11 -49 14 -15 37 8 48 48 14 48 47 106 73 127 14
12 18 12 30 -4 21 -29 39 -9 21 25 -23 44 -32 45 -73 4z"/>
<path d="M11725 5233 c-16 -8 -40 -25 -53 -36 -25 -23 -57 -119 -48 -143 10
-25 29 -11 32 24 7 60 30 100 73 121 22 12 46 18 54 15 20 -7 33 16 16 27 -20
12 -40 10 -74 -8z"/>
<path d="M11549 5233 c-1 -4 0 -23 1 -41 2 -37 -30 -95 -66 -118 -33 -22 -47
-9 -39 35 4 20 8 42 8 49 0 6 4 12 9 12 4 0 8 7 8 15 0 26 -30 16 -41 -12 -6
-16 -13 -48 -16 -73 -4 -37 -1 -48 15 -63 19 -17 23 -17 50 -3 36 19 90 79 98
110 8 35 1 89 -13 94 -7 2 -13 0 -14 -5z"/>
<path d="M15024 5163 c-41 -43 -72 -69 -68 -58 4 11 14 28 22 37 13 16 13 18
-2 24 -19 7 -42 -17 -52 -56 -4 -14 -13 -36 -21 -49 -11 -16 -12 -26 -4 -34
12 -12 22 -4 120 88 44 41 52 46 45 25 -12 -38 -8 -69 12 -92 16 -17 27 -19
66 -15 51 6 88 25 88 44 0 17 -10 16 -48 -3 -38 -19 -71 -15 -86 8 -8 14 -6
33 12 80 26 75 27 78 6 78 -9 0 -49 -35 -90 -77z"/>
<path d="M2492 5197 c-30 -32 -29 -67 1 -67 37 0 59 22 55 55 -4 38 -27 43
-56 12z"/>
<path d="M9641 5199 c-36 -22 -37 -28 -11 -121 11 -38 11 -49 1 -62 -18 -22
-44 -2 -35 26 5 15 2 19 -12 16 -25 -4 -29 -33 -10 -63 21 -31 46 -32 74 -2
26 27 28 59 7 117 -8 23 -15 46 -15 50 0 13 46 28 73 23 29 -6 35 5 15 25 -18
18 -49 15 -87 -9z"/>
<path d="M13500 5213 c-25 -9 -68 -54 -80 -84 -7 -16 -18 -29 -26 -29 -20 0
-29 -22 -13 -34 8 -6 19 -24 24 -41 9 -25 16 -31 47 -33 42 -4 78 12 78 32 0
11 -7 12 -34 4 -81 -25 -92 26 -14 63 65 30 78 43 78 78 0 42 -22 58 -60 44z
m30 -43 c0 -13 -14 -27 -40 -40 -21 -11 -42 -20 -45 -20 -13 0 30 52 54 65 33
18 31 18 31 -5z"/>
<path d="M13753 5198 c-34 -38 -53 -84 -53 -131 0 -51 16 -70 57 -65 22 2 29
9 31 31 2 15 8 27 13 27 5 0 9 4 9 9 0 5 -12 8 -27 7 -21 -3 -28 -9 -27 -25 1
-34 -21 -18 -24 17 -4 39 31 106 64 121 13 6 24 15 24 21 0 19 -46 10 -67 -12z"/>
<path d="M4874 5176 c4 -15 0 -28 -10 -37 -26 -21 -46 -70 -40 -95 8 -32 51
-32 96 1 43 32 50 43 50 82 0 37 -38 73 -77 73 -22 0 -24 -4 -19 -24z m48 -23
c27 -24 22 -49 -15 -77 -61 -47 -77 -25 -28 35 23 27 27 39 18 48 -18 18 4 13
25 -6z"/>
<path d="M10358 5173 c-75 -81 -61 -171 30 -189 45 -9 117 4 144 26 34 27 17
33 -41 14 -54 -17 -111 -15 -137 7 -8 6 -14 24 -14 40 0 23 5 29 21 29 33 0
79 32 79 55 0 49 -44 58 -82 18z m41 -24 c-22 -14 -33 -10 -19 6 7 8 17 12 22
9 6 -4 5 -10 -3 -15z"/>
<path d="M3382 5179 c-49 -18 -67 -128 -26 -156 18 -12 24 -11 47 7 l26 20 3
-32 c2 -21 8 -33 18 -33 12 0 14 10 11 44 -2 31 4 59 20 93 17 36 20 51 11 60
-8 8 -15 8 -25 -1 -10 -7 -23 -8 -38 -2 -14 5 -34 5 -47 0z m56 -51 c2 -9 -10
-31 -27 -50 -23 -26 -32 -30 -42 -21 -10 10 -10 21 0 53 11 36 15 41 39 38 15
-2 28 -10 30 -20z"/>
<path d="M4731 5180 c-30 -7 -59 -45 -67 -87 -10 -50 18 -42 36 9 12 34 21 43
48 50 17 5 32 14 32 22 0 14 -12 15 -49 6z"/>
<path d="M5925 5180 c-3 -5 -14 -10 -23 -10 -17 0 -26 -8 -70 -64 -41 -53 -22
-106 38 -106 31 0 81 32 75 48 -2 7 -1 11 4 8 12 -8 31 17 37 48 8 48 -41 109
-61 76z m-4 -122 c-59 -53 -104 -25 -57 36 18 24 31 33 44 29 12 -3 22 2 28
14 6 14 9 11 12 -17 3 -29 -2 -39 -27 -62z"/>
<path d="M12020 5172 c-42 -22 -109 -139 -85 -149 9 -3 17 -4 18 -2 1 2 13 24
26 49 31 59 50 80 71 80 15 0 17 -5 10 -36 -5 -19 -16 -41 -25 -48 -13 -9 -14
-17 -6 -39 6 -15 14 -27 19 -27 9 0 37 77 46 125 10 53 -23 73 -74 47z"/>
<path d="M12192 5167 c-27 -29 -51 -85 -45 -108 10 -38 59 -33 109 13 l21 19
5 -52 c3 -28 3 -70 1 -93 l-5 -42 -53 4 c-47 4 -56 1 -84 -25 -51 -45 -59
-148 -15 -180 51 -37 116 10 151 107 17 47 20 50 43 44 38 -11 83 -10 87 2 2
6 -18 15 -44 20 l-48 9 -2 100 c-3 159 -25 212 -57 143 -19 -40 -76 -80 -76
-53 0 21 25 68 44 84 15 13 13 31 -3 31 -4 0 -17 -10 -29 -23z m66 -295 c9 -6
4 -24 -20 -72 -37 -72 -59 -91 -85 -74 -12 7 -19 27 -21 57 -3 39 1 51 22 72
25 25 77 34 104 17z"/>
<path d="M3600 5158 c-17 -43 -53 -198 -47 -204 13 -13 39 7 65 52 15 25 37
58 49 72 21 27 21 27 43 7 13 -12 20 -28 18 -44 -2 -18 2 -26 12 -26 24 0 24
57 0 88 -39 49 -85 34 -123 -38 -21 -39 -21 -33 2 42 10 34 16 64 13 67 -11
12 -23 5 -32 -16z"/>
<path d="M7695 5149 c-19 -17 -35 -26 -35 -19 0 6 -5 10 -12 8 -11 -4 -37 -85
-38 -115 0 -29 27 -9 55 38 29 50 68 89 88 89 15 0 1 -88 -22 -140 -13 -28
-17 -48 -11 -54 14 -14 24 0 48 66 22 60 31 126 18 146 -13 21 -54 13 -91 -19z"/>
<path d="M10045 5173 c-58 -5 -69 -11 -57 -26 8 -10 27 -11 69 -6 32 3 60 5
62 3 2 -2 -12 -16 -30 -31 -120 -99 -139 -130 -98 -156 22 -14 169 11 176 30
9 23 -1 24 -68 8 -75 -17 -99 -19 -99 -5 0 5 38 41 86 80 96 81 104 104 39
106 -22 1 -58 -1 -80 -3z"/>
<path d="M14120 5170 c-7 -4 -9 -13 -5 -19 16 -27 -69 -102 -96 -85 -7 4 -9
23 -6 45 6 43 0 54 -20 38 -7 -7 -13 -31 -13 -55 0 -38 4 -46 26 -56 37 -17
108 22 135 73 10 21 19 42 19 48 0 13 -25 20 -40 11z"/>
<path d="M7532 5138 c-1 -18 -11 -45 -23 -61 -16 -22 -17 -31 -9 -48 12 -22
34 -21 36 2 0 8 6 27 12 42 16 39 15 97 -1 97 -7 0 -14 -14 -15 -32z"/>
<path d="M14740 5147 c-26 -9 -41 -24 -59 -57 -22 -42 -23 -48 -10 -75 18 -37
41 -42 90 -20 41 19 53 40 51 94 -3 72 -11 79 -72 58z m40 -67 c0 -34 -4 -42
-30 -55 -37 -19 -46 -19 -54 1 -11 29 34 94 66 94 14 0 18 -8 18 -40z"/>
<path d="M8969 5133 c-8 -10 -27 -37 -42 -60 -15 -24 -31 -43 -36 -43 -5 0 -7
-9 -4 -20 9 -35 28 -22 67 45 21 36 42 62 47 59 5 -3 9 -34 9 -70 0 -48 4 -64
14 -64 26 0 28 116 2 159 -11 17 -41 13 -57 -6z"/>
<path d="M9785 5098 c-27 -57 -32 -103 -13 -114 16 -10 40 27 33 54 -3 13 3
39 15 62 24 47 24 50 5 50 -9 0 -26 -22 -40 -52z"/>
<path d="M11847 5089 c-12 -43 -15 -65 -8 -72 7 -7 16 2 27 28 24 58 30 105
13 105 -8 0 -21 -25 -32 -61z"/>
<path d="M14508 5101 c-14 -45 -10 -86 8 -68 11 11 41 106 36 112 -15 15 -30
0 -44 -44z"/>
<path d="M8817 5114 c-4 -4 -7 -16 -7 -26 0 -10 -9 -36 -20 -58 -22 -43 -26
-70 -10 -70 13 0 57 88 61 124 4 28 -10 44 -24 30z"/>
<path d="M2664 4895 c-33 -26 -68 -95 -79 -158 -6 -32 -12 -39 -36 -44 -32 -6
-44 -17 -34 -33 3 -6 15 -6 30 0 23 9 24 8 27 -48 4 -68 22 -72 25 -6 2 65 6
70 57 83 45 11 64 25 48 35 -5 3 -26 1 -46 -5 -21 -6 -40 -9 -42 -6 -11 11 31
113 61 145 30 33 36 36 55 24 27 -17 43 -7 30 19 -15 27 -58 24 -96 -6z"/>
<path d="M4899 4758 c-62 -66 -98 -144 -83 -182 10 -25 26 -14 30 21 8 71 68
155 104 146 24 -6 28 22 4 31 -25 10 -32 7 -55 -16z"/>
<path d="M5083 4744 c-55 -27 -94 -74 -86 -104 8 -31 37 -33 106 -5 15 6 16 4
8 -18 -5 -14 -10 -43 -9 -66 0 -34 3 -40 19 -38 27 5 31 12 18 39 -9 21 -6 36
15 90 14 35 26 68 26 71 0 14 -31 7 -37 -8 -11 -30 -113 -70 -113 -45 0 16 81
70 105 70 29 0 37 10 24 27 -15 17 -17 17 -76 -13z"/>
<path d="M4029 4733 c-13 -9 -27 -23 -32 -29 -4 -7 -15 -10 -23 -7 -21 8 -34
-14 -34 -60 0 -21 -9 -55 -20 -77 -50 -97 -75 -265 -41 -265 18 0 58 77 66
128 5 27 14 41 29 47 69 26 152 199 118 245 -22 30 -38 35 -63 18z m35 -70 c0
-30 -11 -56 -40 -99 -22 -31 -45 -59 -50 -61 -18 -6 -4 99 19 137 47 81 72 89
71 23z m-154 -259 c-16 -49 -21 -38 -8 16 6 24 13 39 16 32 2 -6 -2 -28 -8
-48z"/>
<path d="M5287 4743 c-3 -5 -8 -28 -12 -53 -4 -25 -16 -62 -26 -82 -23 -46
-23 -48 -1 -48 9 0 35 25 57 56 60 84 67 87 59 26 -9 -68 5 -68 81 -1 31 27
59 49 60 47 2 -2 -1 -24 -7 -49 -14 -60 4 -103 45 -107 28 -3 57 12 57 30 0 6
-12 8 -29 5 -45 -9 -55 10 -40 77 21 96 -1 109 -80 46 l-51 -40 0 45 c0 56
-16 59 -64 9 l-34 -35 5 40 c4 26 2 41 -5 41 -6 0 -13 -3 -15 -7z"/>
<path d="M2364 4720 c-56 -22 -84 -109 -46 -143 29 -27 98 -22 127 8 33 32 31
52 -6 103 -32 43 -39 47 -75 32z m70 -75 c13 -36 -22 -61 -75 -53 -35 4 -40
55 -7 61 49 9 76 7 82 -8z"/>
<path d="M3215 4695 c-49 -17 -105 -76 -105 -110 0 -36 39 -43 85 -16 44 26
42 26 49 -4 6 -25 38 -40 72 -33 32 6 27 27 -8 30 -33 3 -33 3 -31 52 1 27 7
52 14 57 10 6 10 11 0 23 -16 19 -24 19 -76 1z m35 -35 c0 -22 -94 -90 -107
-77 -9 10 19 49 50 67 35 22 57 25 57 10z"/>
<path d="M4151 4625 c-17 -41 -31 -83 -31 -94 0 -30 11 -51 27 -51 11 0 13 7
8 29 -9 42 36 147 63 143 11 -2 19 3 19 13 0 8 -6 15 -14 15 -7 0 -13 5 -13
10 0 6 -6 10 -14 10 -7 0 -27 -34 -45 -75z"/>
<path d="M4591 4644 c-50 -42 -40 -114 17 -114 33 0 59 16 76 48 11 20 16 23
19 12 11 -33 19 -78 22 -127 l3 -51 -71 -7 c-81 -8 -111 -30 -122 -89 -16 -84
54 -149 129 -120 26 10 70 76 82 124 10 41 14 45 43 45 39 0 42 17 3 28 -28 9
-29 12 -41 100 -7 51 -17 111 -23 135 -10 40 -31 55 -41 30 -4 -10 -6 -10 -6
0 -2 22 -58 13 -90 -14z m73 -36 c-19 -37 -31 -48 -56 -48 -26 0 -23 44 5 63
12 9 32 16 45 16 22 1 22 1 6 -31z m55 -265 c-5 -21 -9 -41 -9 -45 0 -20 -64
-78 -85 -78 -47 0 -73 50 -55 105 13 40 16 41 141 53 14 2 16 -4 8 -35z"/>
<path d="M4348 4606 c-43 -54 -52 -80 -38 -106 10 -18 18 -21 42 -16 49 10 81
29 98 58 14 25 13 30 -4 63 -26 47 -61 48 -98 1z m71 -20 c18 -22 -1 -50 -43
-63 -19 -6 -37 -8 -40 -5 -12 11 44 82 65 82 3 0 12 -6 18 -14z"/>
<path d="M5752 4558 c-20 -20 -14 -30 16 -26 16 2 27 9 27 18 0 19 -27 24 -43
8z"/>
<path d="M3055 4132 c-77 -16 -221 -198 -244 -309 -19 -90 3 -153 72 -197 44
-30 177 -6 177 31 0 15 -22 17 -35 4 -6 -6 -33 -13 -61 -16 -47 -7 -54 -5 -83
21 -64 57 -60 156 11 266 44 69 87 118 131 150 l28 20 -6 -35 c-9 -45 11 -59
36 -26 35 45 19 101 -26 91z"/>
<path d="M9300 4112 c0 -10 -11 -51 -24 -90 -14 -39 -39 -127 -56 -194 -17
-68 -38 -133 -46 -146 -8 -13 -12 -32 -9 -42 15 -46 32 -15 69 123 21 78 51
185 67 237 33 107 35 130 14 130 -8 0 -15 -8 -15 -18z"/>
<path d="M7666 4098 c-2 -13 -9 -52 -16 -88 -22 -126 -29 -139 -74 -152 -23
-7 -44 -17 -48 -22 -13 -19 8 -27 36 -15 14 7 29 9 33 5 4 -4 -1 -37 -11 -74
-23 -89 -23 -85 -5 -89 12 -3 20 14 34 78 20 86 34 109 67 109 26 0 18 24 -9
28 -21 3 -21 3 -3 75 29 118 34 167 16 167 -9 0 -17 -10 -20 -22z"/>
<path d="M4277 4023 c-7 -85 -49 -267 -60 -257 -4 4 -4 18 -1 30 5 18 2 24 -9
24 -25 0 -29 -34 -11 -81 21 -56 47 -79 89 -79 52 0 77 28 83 91 3 46 1 57
-18 74 -20 19 -23 19 -51 3 -34 -20 -33 -21 -13 47 8 30 14 60 13 67 -1 7 1
20 5 29 11 24 3 122 -10 126 -7 2 -13 -24 -17 -74z m61 -256 c5 -42 -23 -79
-56 -75 -39 4 -42 42 -6 79 34 36 58 34 62 -4z"/>
<path d="M7022 4073 c2 -18 10 -27 26 -29 25 -4 31 23 10 44 -21 21 -40 14
-36 -15z"/>
<path d="M12407 4064 c-4 -4 -7 -20 -7 -36 0 -24 4 -29 22 -26 12 2 23 8 25
14 5 15 -30 57 -40 48z"/>
<path d="M13104 4018 c-41 -82 -80 -133 -125 -166 -34 -25 -44 -29 -60 -19
-26 16 -83 -13 -109 -55 -44 -73 -14 -83 77 -27 37 24 88 60 113 80 24 21 45
37 47 36 1 -2 -4 -27 -12 -57 -20 -73 -19 -123 3 -150 14 -17 22 -20 42 -12
14 6 35 20 48 31 23 23 30 61 10 61 -6 0 -8 -3 -5 -6 4 -4 -10 -20 -30 -36
-33 -26 -38 -27 -46 -12 -19 34 26 208 83 319 24 47 25 65 5 65 -8 0 -27 -24
-41 -52z m-209 -224 c-38 -30 -61 -36 -32 -10 15 14 33 26 40 26 7 0 3 -8 -8
-16z"/>
<path d="M6114 3933 c-53 -117 -72 -153 -119 -217 -59 -82 -88 -89 -59 -15 29
73 61 116 94 128 34 11 32 31 -2 31 -56 0 -154 -171 -130 -225 7 -14 18 -25
26 -25 24 0 70 45 115 112 l42 63 -7 -43 c-9 -57 15 -96 57 -90 20 3 29 0 29
-9 0 -47 63 -83 111 -64 30 12 119 94 119 109 0 22 -25 12 -59 -23 -39 -38
-92 -55 -116 -35 -25 21 -17 59 24 108 46 56 64 89 56 102 -18 29 -66 -14
-107 -94 -34 -66 -71 -85 -82 -42 -6 25 18 132 53 231 25 70 26 85 7 85 -7 0
-31 -38 -52 -87z"/>
<path d="M11451 3935 c-17 -20 -31 -40 -31 -46 0 -6 -4 -8 -9 -5 -14 9 -28
-15 -35 -60 -4 -22 -13 -58 -20 -79 -15 -42 -11 -75 9 -75 15 0 19 12 30 75 7
42 56 148 82 177 20 22 35 13 31 -17 -2 -13 0 -24 5 -25 4 0 12 0 17 0 14 0
12 64 -2 78 -21 21 -45 13 -77 -23z"/>
<path d="M8510 3903 c-47 -47 -51 -81 -20 -143 11 -22 20 -41 20 -43 0 -12
-41 -13 -57 -1 -26 19 -35 17 -31 -8 4 -31 47 -45 87 -28 37 15 39 35 11 90
-28 55 -25 74 16 116 26 25 33 39 26 46 -8 8 -23 0 -52 -29z"/>
<path d="M12464 3905 c-35 -35 -107 -186 -94 -199 12 -12 9 -17 64 91 51 99
74 117 107 88 17 -16 19 -16 25 -1 18 46 -60 63 -102 21z"/>
<path d="M9885 3881 c-17 -39 -90 -121 -107 -121 -24 0 26 87 65 115 16 12 19
17 9 27 -28 28 -128 -114 -105 -150 20 -33 50 -26 103 27 l50 50 -1 -72 c0
-40 -3 -90 -7 -112 -7 -39 -9 -40 -55 -47 -49 -7 -92 -28 -114 -57 -31 -40 0
-141 47 -156 13 -4 31 0 45 9 25 17 85 123 85 151 0 11 10 14 46 12 62 -3 70
18 11 27 l-44 7 7 42 c10 51 14 141 12 225 -2 74 -20 83 -47 23z m-25 -361
c-39 -100 -72 -124 -104 -78 -42 60 8 125 96 127 l28 1 -20 -50z"/>
<path d="M11599 3897 c-75 -51 -109 -124 -95 -201 6 -30 11 -36 31 -36 28 0
34 24 10 34 -8 3 -15 16 -15 30 0 19 8 27 34 36 34 11 116 83 116 102 0 17
-19 46 -34 51 -8 3 -29 -4 -47 -16z m41 -30 c0 -15 -45 -59 -77 -76 -35 -18
-28 3 15 49 40 41 62 51 62 27z"/>
<path d="M11810 3883 c-24 -29 -30 -46 -28 -73 2 -28 8 -36 26 -38 13 -2 30 2
38 9 13 10 13 8 4 -17 -6 -16 -43 -93 -81 -171 -39 -78 -68 -147 -64 -153 13
-21 35 -8 90 54 69 79 93 96 169 115 65 18 76 37 18 34 -64 -5 -105 -25 -162
-79 l-55 -52 42 86 c34 69 88 190 131 294 2 4 -3 8 -11 8 -8 0 -34 -22 -57
-50 -23 -27 -46 -50 -51 -50 -17 0 -9 33 16 66 47 61 25 76 -25 17z"/>
<path d="M12055 3861 c-26 -87 -25 -132 3 -147 33 -16 65 -7 112 33 42 36 70
88 70 130 0 38 -21 22 -37 -27 -22 -71 -114 -138 -137 -101 -3 4 3 41 14 80
19 68 19 91 1 91 -4 0 -16 -27 -26 -59z"/>
<path d="M7355 3868 c-26 -31 -28 -52 -10 -101 6 -13 3 -16 -8 -11 -12 4 -18
-2 -23 -21 -8 -33 7 -49 40 -41 33 8 39 34 21 86 -14 39 -14 46 0 67 9 12 22
23 30 23 8 0 15 7 15 15 0 26 -37 16 -65 -17z m5 -132 c0 -3 -4 -8 -10 -11 -5
-3 -10 -1 -10 4 0 6 5 11 10 11 6 0 10 -2 10 -4z"/>
<path d="M7705 3890 c-11 -18 5 -31 26 -20 11 6 17 15 14 21 -8 12 -32 12 -40
-1z"/>
<path d="M10774 3874 c-27 -26 -28 -49 -9 -126 6 -23 4 -28 -12 -28 -10 0 -24
5 -30 11 -14 14 -33 3 -33 -17 0 -18 46 -37 70 -29 10 3 25 14 35 25 17 19 17
22 1 59 -22 49 -18 72 16 89 17 8 25 18 21 27 -8 22 -31 18 -59 -11z"/>
<path d="M5366 3881 c-12 -5 -28 -37 -48 -100 -17 -51 -27 -95 -24 -98 12 -13
35 8 41 39 11 49 46 128 58 128 10 0 6 -57 -9 -127 -10 -50 20 -43 59 14 69
101 102 117 85 41 -11 -50 -4 -88 17 -88 10 0 14 10 13 33 0 17 2 46 6 64 9
39 -7 73 -36 73 -11 0 -38 -17 -59 -39 l-39 -39 0 42 c0 58 -19 75 -64 57z"/>
<path d="M5718 3853 c-61 -62 -83 -136 -52 -168 15 -14 20 -14 59 9 l44 24 3
-31 c2 -21 9 -33 21 -35 15 -3 17 2 11 36 -4 29 0 52 15 87 26 60 13 84 -21
39 -35 -46 -95 -104 -107 -104 -28 0 11 91 58 134 17 17 31 33 31 38 0 19 -28
5 -62 -29z"/>
<path d="M8243 3868 c-59 -42 -81 -109 -47 -143 19 -19 49 -12 82 18 l22 20 0
-34 c0 -45 12 -62 40 -57 30 4 39 28 11 28 -18 0 -21 6 -21 40 0 22 7 57 15
77 14 33 14 38 -1 55 -23 24 -63 23 -101 -4z m77 -23 c0 -22 -70 -95 -91 -95
-30 0 -23 38 15 76 35 35 76 45 76 19z"/>
<path d="M9352 3863 c-27 -33 -38 -87 -26 -122 14 -39 65 -41 99 -5 30 33 32
62 5 114 -24 47 -47 51 -78 13z m68 -74 c0 -23 -36 -53 -56 -45 -22 8 -12 75
13 94 15 10 19 9 30 -10 7 -13 12 -30 13 -39z"/>
<path d="M10542 3877 c-38 -22 -76 -87 -76 -131 -1 -55 19 -57 76 -7 l46 41 0
-40 c1 -42 7 -60 23 -60 5 0 9 27 9 60 0 36 7 74 16 92 10 18 12 34 6 40 -15
15 -76 19 -100 5z m58 -27 c0 -14 -100 -114 -107 -107 -10 10 39 95 61 105 28
14 46 14 46 2z"/>
<path d="M4498 3851 c-14 -15 -30 -42 -37 -60 -8 -17 -17 -31 -22 -31 -5 0 -9
-24 -9 -54 0 -47 4 -57 26 -75 32 -25 64 -27 110 -5 35 17 50 53 17 39 -62
-25 -75 -27 -99 -16 -18 8 -24 19 -24 40 0 32 8 42 57 71 47 28 66 61 54 94
-14 34 -43 34 -73 -3z m42 -20 c0 -10 -12 -26 -26 -36 -25 -16 -25 -16 -13 7
13 26 30 48 35 48 2 0 4 -8 4 -19z"/>
<path d="M7131 3866 c-7 -8 -15 -46 -18 -84 -5 -62 -3 -72 16 -91 18 -18 24
-19 46 -9 41 18 85 97 85 151 0 35 -4 47 -15 47 -11 0 -15 -11 -15 -43 0 -33
-8 -55 -31 -86 -16 -23 -35 -41 -42 -38 -17 5 -20 53 -7 105 12 48 2 73 -19
48z"/>
<path d="M9576 3855 c-27 -25 -28 -25 -33 -5 -3 11 -12 20 -20 20 -11 0 -13
-10 -10 -42 3 -29 0 -49 -10 -60 -9 -10 -13 -24 -8 -35 6 -16 10 -13 33 17 15
19 42 50 60 70 l33 35 -8 -50 c-12 -81 -10 -119 7 -123 12 -2 16 11 19 55 8
131 7 138 -15 141 -11 2 -32 -9 -48 -23z"/>
<path d="M2416 3836 c-10 -19 -15 -39 -12 -45 9 -15 36 -14 36 0 0 7 8 18 18
25 13 10 15 17 6 30 -17 29 -28 26 -48 -10z"/>
<path d="M7016 3791 c9 -102 -9 -195 -50 -263 -28 -47 -35 -53 -66 -54 -51 -1
-80 15 -80 43 0 33 -24 24 -28 -10 -3 -21 4 -31 37 -51 61 -39 92 -35 139 19
62 70 92 196 77 329 -5 48 -11 66 -21 66 -12 0 -13 -14 -8 -79z"/>
<path d="M12299 3858 c0 -2 -6 -34 -13 -71 -12 -65 -6 -91 15 -70 15 15 23
129 10 137 -6 4 -11 6 -12 4z"/>
<path d="M12604 3829 c-86 -54 -104 -99 -64 -164 25 -41 58 -56 103 -45 42 9
100 48 92 61 -9 13 -21 11 -40 -7 -9 -9 -35 -19 -59 -21 -38 -5 -45 -2 -64 22
-24 30 -31 85 -9 68 30 -25 117 44 117 93 0 32 -16 30 -76 -7z m16 -39 c-14
-11 -29 -20 -35 -20 -5 0 1 9 15 20 14 11 30 20 35 20 6 0 -1 -9 -15 -20z"/>
<path d="M3223 3825 c-38 -30 -73 -84 -73 -113 0 -27 37 -35 74 -17 36 18 36
18 36 1 0 -22 35 -60 48 -52 9 5 8 13 -3 29 -20 28 -19 58 3 97 16 30 16 32
-2 45 -11 8 -16 15 -10 15 12 0 -18 20 -31 20 -5 0 -24 -11 -42 -25z m57 -21
c0 -29 -54 -83 -83 -84 -15 0 -16 3 -6 21 21 40 89 88 89 63z"/>
<path d="M3465 3809 c-11 -6 -32 -25 -47 -43 l-27 -31 6 39 c10 61 -18 40 -39
-30 -34 -113 -18 -123 57 -31 69 84 76 84 73 0 -2 -51 0 -68 10 -68 19 0 28
140 11 161 -14 17 -18 17 -44 3z"/>
<path d="M3967 3588 c-36 -48 -51 -82 -87 -193 -53 -167 -52 -282 5 -335 31
-29 146 -69 180 -62 34 6 26 26 -11 30 -61 6 -123 34 -154 68 -25 29 -30 43
-30 88 0 113 80 350 134 397 14 12 23 26 20 31 -11 17 -34 7 -57 -24z"/>
<path d="M4832 3468 c-16 -46 -31 -90 -34 -98 -3 -10 -16 -14 -46 -11 -26 1
-42 -2 -42 -9 0 -11 7 -14 51 -24 24 -5 25 -8 19 -48 -4 -24 -11 -56 -15 -71
-7 -25 -5 -28 11 -25 19 3 26 23 40 112 3 25 8 35 13 27 9 -14 66 -11 66 4 0
6 -13 11 -28 13 -16 2 -30 9 -33 16 -3 7 9 51 26 98 35 100 34 98 16 98 -9 0
-26 -32 -44 -82z"/>
<path d="M6466 3535 c-3 -8 -8 -45 -12 -81 -6 -57 -10 -67 -31 -75 -26 -10
-26 -35 0 -33 17 2 16 -5 -3 -99 -8 -36 0 -54 19 -43 4 3 14 39 20 80 12 73
13 75 44 81 52 10 88 27 84 39 -3 6 -11 9 -18 7 -8 -2 -31 -6 -53 -9 l-39 -5
7 49 c4 27 9 61 12 77 4 20 2 27 -9 27 -8 0 -17 -7 -21 -15z"/>
<path d="M5149 3533 c0 -5 0 -30 1 -58 0 -33 -10 -80 -30 -140 -40 -114 -42
-175 -6 -175 8 0 19 7 26 15 10 12 9 16 -4 21 -23 9 -20 39 14 132 34 95 43
212 15 212 -8 0 -15 -3 -16 -7z"/>
<path d="M8128 3426 c-16 -15 -35 -22 -46 -19 -16 4 -25 -11 -56 -93 -23 -61
-33 -101 -27 -107 13 -13 28 -1 36 30 10 41 50 104 91 143 l36 35 -4 -65 c-3
-36 -7 -71 -9 -79 -2 -8 3 -16 11 -18 10 -2 25 18 45 58 32 64 46 81 53 60 11
-32 55 -71 81 -71 31 0 77 28 51 31 -8 1 -22 3 -30 4 -8 1 -23 3 -32 4 -10 0
-27 19 -38 41 -25 48 -40 50 -74 9 l-26 -31 0 34 c0 30 -14 59 -29 58 -4 0
-18 -11 -33 -24z"/>
<path d="M7298 3415 c-53 -36 -57 -68 -14 -105 26 -21 18 -30 -25 -30 -33 0
-40 -3 -37 -17 3 -14 12 -17 43 -15 75 6 100 44 50 76 -33 22 -32 48 5 69 17
10 30 22 30 27 0 20 -18 18 -52 -5z"/>
<path d="M5798 3408 c-58 -25 -66 -43 -32 -71 79 -65 86 -79 51 -101 -11 -7
-29 -7 -57 0 -25 7 -43 8 -46 2 -11 -17 14 -31 64 -36 41 -4 53 -1 71 17 32
32 26 60 -23 107 l-45 42 50 18 c27 10 49 24 49 31 0 18 -26 15 -82 -9z"/>
<path d="M6080 3398 c-31 -79 -63 -148 -70 -148 -4 0 -13 33 -20 73 -14 80
-22 94 -38 75 -7 -9 -6 -28 4 -68 8 -30 14 -62 14 -72 0 -9 6 -23 13 -29 11
-11 7 -25 -20 -80 -43 -88 -43 -130 1 -113 18 7 22 30 6 36 -5 2 7 35 27 73
77 149 95 189 120 268 10 32 -24 18 -37 -15z"/>
<path d="M6316 3421 c-4 -5 0 -12 6 -15 7 -3 3 -3 -10 0 -14 3 -36 -3 -57 -16
l-35 -21 16 -37 c26 -61 27 -72 8 -93 -12 -14 -25 -18 -41 -14 -18 4 -23 1
-23 -15 0 -28 22 -34 59 -16 50 26 67 81 36 122 -23 31 -18 42 35 69 28 14 50
30 50 35 0 13 -37 13 -44 1z"/>
<path d="M4980 3396 c0 -17 5 -26 16 -26 10 0 14 7 12 22 -5 32 -28 35 -28 4z"/>
<path d="M6720 3379 c-35 -14 -69 -48 -91 -91 l-19 -37 31 -16 c27 -15 35 -15
82 -1 62 18 103 44 90 57 -6 6 -27 2 -54 -10 -52 -24 -87 -27 -44 -4 66 34 90
74 63 101 -14 14 -24 14 -58 1z m35 -39 c-4 -6 -25 -20 -48 -32 -39 -19 -41
-19 -27 -2 8 10 22 24 30 31 18 15 54 17 45 3z"/>
<path d="M6957 3366 c-17 -16 -29 -20 -36 -13 -12 12 -65 -99 -57 -120 8 -20
22 -15 34 11 13 30 81 106 93 106 5 0 2 -16 -6 -36 -8 -20 -15 -40 -15 -45 0
-20 28 -7 65 31 21 22 43 40 47 40 4 0 8 -15 8 -34 0 -38 21 -61 47 -51 17 6
17 7 1 19 -10 7 -18 26 -18 42 0 71 -21 91 -55 54 -10 -11 -22 -20 -26 -20 -4
0 -11 9 -14 20 -9 27 -36 25 -68 -4z"/>
<path d="M4311 3342 c-11 -21 -27 -44 -35 -51 -9 -8 -16 -17 -16 -22 0 -4 -11
-19 -25 -33 -27 -27 -33 -56 -12 -56 6 0 23 17 37 37 24 35 25 35 30 12 8 -31
31 -35 61 -11 23 20 23 19 34 -2 13 -25 45 -34 45 -13 0 9 -6 17 -12 19 -9 3
-8 15 6 47 30 66 8 73 -47 14 -25 -26 -49 -44 -53 -40 -5 5 0 29 9 55 23 60
25 74 10 79 -7 2 -21 -13 -32 -35z"/>
<path d="M4585 3335 c-16 -13 -35 -24 -40 -25 -10 0 -35 -54 -35 -73 0 -17 28
-5 38 17 6 13 24 33 41 45 l31 22 -7 -60 c-5 -53 -4 -61 11 -61 11 0 16 9 16
28 0 15 4 42 10 61 10 36 -1 71 -23 71 -7 0 -25 -11 -42 -25z"/>
<path d="M4931 3312 c-17 -40 -11 -137 8 -137 11 0 15 15 16 60 1 33 4 69 6
79 7 31 -17 29 -30 -2z"/>
</g>
</svg>
